<svg width="98" height="97" viewBox="0 0 98 97" fill="none" xmlns="http://www.w3.org/2000/svg">
<path d="M17.833 90.828L20.7986 81.6866C21.3628 79.948 18.6729 79.0753 18.1093 80.8141L16.3323 86.2915L14.4989 81.8287C14.0284 80.6831 12.3541 80.6831 11.8837 81.8287L10.0506 86.2917L8.2734 80.8141C7.70983 79.0755 5.02014 79.948 5.58409 81.6866L8.54991 90.828C8.94441 92.0439 10.7145 92.1159 11.2021 90.9288L13.1914 86.0864L15.1806 90.9288C15.6705 92.1212 17.4355 92.0537 17.833 90.828Z" fill="#E9E9E9"/>
<path d="M26.7459 91.804C27.3366 91.8265 27.8821 91.477 28.1073 90.9285L30.0964 86.0861L32.0857 90.9285C32.5696 92.1064 34.3406 92.0523 34.7379 90.8277L37.7038 81.6863C38.2679 79.9477 35.578 79.075 35.0144 80.8138L33.2372 86.2914L31.4038 81.8286C30.9333 80.683 29.259 80.683 28.7885 81.8286L26.9553 86.2914L25.1781 80.814C24.6145 79.0754 21.9248 79.9479 22.4888 81.6865L25.4546 90.8279C25.638 91.3916 26.1535 91.7816 26.7459 91.804Z" fill="#E9E9E9"/>
<path d="M43.7037 91.804C44.2926 91.8265 44.8398 91.4772 45.0652 90.9285L47.0545 86.0861L49.0438 90.9285C49.5276 92.1064 51.2986 92.0523 51.696 90.8277L54.6618 81.6863C55.2259 79.9477 52.536 79.075 51.9725 80.8138L50.1952 86.2914L48.3618 81.8286C47.8913 80.683 46.217 80.683 45.7466 81.8286L43.9133 86.2914L42.1361 80.8138C41.5721 79.0754 38.8828 79.9477 39.4468 81.6863L42.4126 90.8277C42.5958 91.3916 43.1113 91.7816 43.7037 91.804Z" fill="#E9E9E9"/>
<path d="M96.2578 78.3178L82.6978 64.2424C87.2372 57.4759 89.6319 49.6061 89.6319 41.4041C89.6319 29.8184 84.6993 18.7128 76.0989 10.9349C74.7439 9.70859 72.847 11.8059 74.2026 13.0318C78.3741 16.8043 81.6162 21.4187 83.768 26.4976H65.608C63.9049 16.3806 60.4995 8.29438 56.1355 3.91565C60.1229 4.72068 63.969 6.15393 67.5066 8.17639C69.0935 9.08357 70.4968 6.62872 68.9097 5.72192C62.7351 2.19175 55.6898 0.325928 48.5356 0.325928C37.5584 0.325928 27.2383 4.59873 19.4761 12.3572C11.7138 20.1159 7.43891 30.4315 7.43891 41.4041C7.43891 54.1925 13.2876 66.0387 23.259 73.7992H5.47056C2.78597 73.7992 0.601807 75.9832 0.601807 78.668V91.9624C0.601807 94.647 2.78597 96.831 5.47056 96.831H11.1555C12.9832 96.831 12.9832 94.0037 11.1555 94.0037H5.47056C4.34474 94.0037 3.42908 93.088 3.42908 91.9622V78.6678C3.42908 77.5422 4.34474 76.6263 5.47056 76.6263H58.0986C59.2244 76.6263 60.1401 77.542 60.1401 78.6678V91.9622C60.1401 93.0878 59.2244 94.0037 58.0986 94.0037H18.6879C16.8601 94.0037 16.8601 96.831 18.6879 96.831H58.0986C60.7832 96.831 62.9673 94.647 62.9673 91.9622V79.8772C66.7989 78.4418 70.3635 76.455 73.6034 73.9553L73.6345 87.4662C73.6409 90.2944 77.3478 91.5292 79.0513 89.2753L84.5053 82.0593C84.5466 82.0044 84.6132 81.9769 84.6825 81.9877L93.6225 83.384C96.3718 83.8122 98.2206 80.355 96.2578 78.3178ZM84.8373 29.3249C86.1252 33.1857 86.8048 37.2615 86.8048 41.4041C86.8048 45.561 86.1433 49.6257 84.8604 53.4832H66.0208C66.5344 49.6281 66.8064 45.5655 66.8064 41.4041C66.8064 37.1829 66.5359 33.1305 66.0327 29.3249H84.8373ZM56.5962 73.7992H40.4747C37.6819 69.4831 35.5714 63.3742 34.337 56.3105H62.734C61.4994 63.3744 59.389 69.4833 56.5962 73.7992ZM33.8949 53.4832C33.369 49.6489 33.0917 45.5819 33.0917 41.4041C33.0917 37.2355 33.3673 33.171 33.8966 29.3249H63.1743C63.7036 33.171 63.9791 37.2355 63.9791 41.4041C63.9791 45.5819 63.7019 49.6489 63.176 53.4832H33.8949ZM10.2662 41.4041C10.2662 37.1848 10.9549 33.1237 12.223 29.3249H31.0384C30.5351 33.1305 30.2646 37.1829 30.2646 41.4041C30.2646 45.5655 30.5366 49.6281 31.0502 53.4832H12.2095C10.9387 49.6485 10.2662 45.5808 10.2662 41.4041ZM59.1545 13.91C60.71 17.57 61.9162 21.8407 62.7334 26.4976H34.3376C35.1549 21.8409 36.361 17.57 37.9166 13.91C40.8219 7.07393 44.6924 3.15322 48.5356 3.15322C52.3788 3.15322 56.2492 7.07393 59.1545 13.91ZM40.9397 3.91113C36.5734 8.28891 33.1665 16.3772 31.4626 26.4976H13.2921C18.1596 15.0443 28.4586 6.43326 40.9397 3.91113ZM27.9583 73.6607C21.2867 69.3998 16.2376 63.33 13.2737 56.3105H31.4747C32.6331 63.1646 34.5873 69.2213 37.1736 73.7992H28.1383C28.0825 73.7495 28.0234 73.7024 27.9583 73.6607ZM62.6592 76.9645C62.1578 75.6266 61.084 74.5666 59.7373 74.0838C62.4036 69.474 64.414 63.3066 65.5963 56.3107H83.7932C82.9351 58.3343 81.898 60.2887 80.688 62.1562L78.7598 60.1547C76.942 58.2672 73.5708 59.5962 73.5766 62.2512L73.5953 70.3132C70.323 73.1493 66.6505 75.3816 62.6592 76.9645ZM94.2526 80.4926C94.191 80.6109 94.1083 80.5979 94.0591 80.5904L85.1192 79.1941C84.0194 79.0222 82.9211 79.4668 82.2501 80.3542L76.7959 87.5706C76.6314 87.6933 76.52 87.6564 76.4619 87.4598L76.4037 62.2446C76.4521 62.058 76.5588 62.0153 76.7234 62.1161L94.2217 80.2796C94.2562 80.3152 94.3137 80.375 94.2526 80.4926Z" fill="#E9E9E9"/>
</svg>
