<svg width="97" height="97" viewBox="0 0 97 97" fill="none" xmlns="http://www.w3.org/2000/svg">
<path d="M11.1051 35.476C11.3803 35.7513 11.7417 35.8897 12.1031 35.8897C12.4645 35.8897 12.8259 35.752 13.1019 35.476C13.6532 34.9247 13.6532 34.0304 13.1019 33.4792L9.67347 30.0507L13.1019 26.623C13.6532 26.071 13.6532 25.1774 13.1019 24.6261C12.5506 24.0748 11.6564 24.0748 11.1051 24.6261L6.67854 29.0526C6.41357 29.3176 6.26489 29.6768 6.26489 30.0507C6.26489 30.4253 6.41357 30.7845 6.67854 31.0495L11.1051 35.476Z" fill="white"/>
<path d="M25.1192 30.0508L21.6907 33.4793C21.1394 34.0306 21.1394 34.9249 21.6915 35.4761C21.9667 35.7514 22.3281 35.8898 22.6895 35.8898C23.0509 35.8898 23.4123 35.7514 23.6876 35.4761L28.1148 31.0489C28.6661 30.4976 28.6661 29.6033 28.1148 29.0528L23.6876 24.6255C23.1363 24.0742 22.2427 24.0742 21.6915 24.6255C21.1394 25.1775 21.1394 26.0711 21.6915 26.6224L25.1192 30.0508Z" fill="white"/>
<path d="M15.2921 35.7919C15.4614 35.8581 15.6366 35.8898 15.8081 35.8898C16.3719 35.8898 16.9041 35.5497 17.1227 34.994L20.6004 26.1402C20.886 25.4145 20.5283 24.5953 19.8026 24.3097C19.0776 24.0249 18.2576 24.3818 17.9728 25.1076L14.4943 33.9613C14.2094 34.6871 14.5664 35.507 15.2921 35.7919Z" fill="white"/>
<path d="M8.4813 44.173H17.9931C18.7725 44.173 19.4048 43.5408 19.4048 42.7606C19.4048 41.9811 18.7725 41.3489 17.9931 41.3489H8.4813C7.7011 41.3489 7.06958 41.9811 7.06958 42.7606C7.06958 43.5408 7.7011 44.173 8.4813 44.173Z" fill="white"/>
<path d="M39.9001 41.3489H23.1773C22.3979 41.3489 21.7656 41.9811 21.7656 42.7606C21.7656 43.5408 22.3979 44.173 23.1773 44.173H39.9001C40.6803 44.173 41.3125 43.5408 41.3125 42.7606C41.3125 41.9811 40.6803 41.3489 39.9001 41.3489Z" fill="white"/>
<path d="M8.4813 50.1284H12.5332C13.3126 50.1284 13.9449 49.4961 13.9449 48.7159C13.9449 47.9365 13.3126 47.3042 12.5332 47.3042H8.4813C7.7011 47.3042 7.06958 47.9365 7.06958 48.7159C7.06958 49.4961 7.7011 50.1284 8.4813 50.1284Z" fill="white"/>
<path d="M34.7301 47.3042C33.9499 47.3042 33.3184 47.9365 33.3184 48.7159C33.3184 49.4961 33.9499 50.1284 34.7301 50.1284H37.1973C37.9775 50.1284 38.6097 49.4961 38.6097 48.7159C38.6097 47.9365 37.9775 47.3042 37.1973 47.3042H34.7301Z" fill="white"/>
<path d="M31.0126 48.7159C31.0126 47.9365 30.3803 47.3042 29.6009 47.3042H17.4813C16.7011 47.3042 16.0696 47.9365 16.0696 48.7159C16.0696 49.4961 16.7011 50.1284 17.4813 50.1284H29.6009C30.3803 50.1284 31.0126 49.4961 31.0126 48.7159Z" fill="white"/>
<path d="M40.2725 48.7159C40.2725 49.4961 40.9047 50.1284 41.6842 50.1284H46.3057C47.0859 50.1284 47.7182 49.4961 47.7182 48.7159C47.7182 47.9365 47.0859 47.3042 46.3057 47.3042H41.6842C40.9047 47.3042 40.2725 47.9365 40.2725 48.7159Z" fill="white"/>
<path d="M32.5748 31.1834H37.4496C38.2298 31.1834 38.862 30.5512 38.862 29.771C38.862 28.9915 38.2298 28.3593 37.4496 28.3593H32.5748C31.7946 28.3593 31.1624 28.9915 31.1624 29.771C31.1624 30.5512 31.7946 31.1834 32.5748 31.1834Z" fill="white"/>
<path d="M42.9127 31.1834H72.6566C73.4368 31.1834 74.0683 30.5512 74.0683 29.771C74.0683 28.9915 73.4368 28.3593 72.6566 28.3593H42.9127C42.1325 28.3593 41.5002 28.9915 41.5002 29.771C41.5002 30.5512 42.1325 31.1834 42.9127 31.1834Z" fill="white"/>
<path d="M68.144 34.5714H56.0951C55.3156 34.5714 54.6833 35.2037 54.6833 35.9839C54.6833 36.7633 55.3156 37.3956 56.0951 37.3956H68.144C68.9234 37.3956 69.5557 36.7633 69.5557 35.9839C69.5557 35.2037 68.9234 34.5714 68.144 34.5714Z" fill="white"/>
<path d="M51.5758 34.5714H47.4342C46.654 34.5714 46.0225 35.2037 46.0225 35.9839C46.0225 36.7633 46.654 37.3956 47.4342 37.3956H51.5758C52.356 37.3956 52.9876 36.7633 52.9876 35.9839C52.9876 35.2037 52.356 34.5714 51.5758 34.5714Z" fill="white"/>
<path d="M32.5748 37.3956H42.7211C43.5005 37.3956 44.1328 36.7633 44.1328 35.9839C44.1328 35.2037 43.5005 34.5714 42.7211 34.5714H32.5748C31.7946 34.5714 31.1624 35.2037 31.1624 35.9839C31.1624 36.7633 31.7946 37.3956 32.5748 37.3956Z" fill="white"/>
<path d="M29.6244 53.2094H20.1134C19.3332 53.2094 18.7009 53.8416 18.7009 54.6211C18.7009 55.4005 19.3332 56.0328 20.1134 56.0328H29.6244C30.4039 56.0328 31.0362 55.4005 31.0362 54.6211C31.0362 53.8416 30.4039 53.2094 29.6244 53.2094Z" fill="white"/>
<path d="M15.7887 53.2094H8.4813C7.7011 53.2094 7.06958 53.8416 7.06958 54.6211C7.06958 55.4005 7.7011 56.0328 8.4813 56.0328H15.7887C16.5689 56.0328 17.2004 55.4005 17.2004 54.6211C17.2004 53.8416 16.5689 53.2094 15.7887 53.2094Z" fill="white"/>
<path d="M46.8592 53.2094H34.4342C33.654 53.2094 33.0225 53.8416 33.0225 54.6211C33.0225 55.4005 33.654 56.0328 34.4342 56.0328H46.8592C47.6387 56.0328 48.2709 55.4005 48.2709 54.6211C48.2709 53.8416 47.6387 53.2094 46.8592 53.2094Z" fill="white"/>
<path d="M63.6641 45.9564H56.8697C56.0903 45.9564 55.458 46.5887 55.458 47.3681C55.458 48.1483 56.0903 48.7806 56.8697 48.7806H63.6641C64.4443 48.7806 65.0758 48.1483 65.0758 47.3681C65.0758 46.5887 64.4443 45.9564 63.6641 45.9564Z" fill="white"/>
<path d="M75.4579 48.7806H85.0491C85.8293 48.7806 86.4616 48.1483 86.4616 47.3681C86.4616 46.5887 85.8293 45.9564 85.0491 45.9564H75.4579C74.6777 45.9564 74.0461 46.5887 74.0461 47.3681C74.0461 48.1483 74.6784 48.7806 75.4579 48.7806Z" fill="white"/>
<path d="M70.6586 45.9564H68.4608C67.6806 45.9564 67.0483 46.5887 67.0483 47.3681C67.0483 48.1483 67.6806 48.7806 68.4608 48.7806H70.6586C71.4388 48.7806 72.0703 48.1483 72.0703 47.3681C72.0703 46.5887 71.4388 45.9564 70.6586 45.9564Z" fill="white"/>
<path d="M56.8697 64.1668H63.6641C64.4443 64.1668 65.0758 63.5353 65.0758 62.7551C65.0758 61.9756 64.4443 61.3434 63.6641 61.3434H56.8697C56.0903 61.3434 55.458 61.9756 55.458 62.7551C55.458 63.5353 56.0903 64.1668 56.8697 64.1668Z" fill="white"/>
<path d="M75.4579 64.1668H85.0491C85.8293 64.1668 86.4616 63.5353 86.4616 62.7551C86.4616 61.9756 85.8293 61.3434 85.0491 61.3434H75.4579C74.6777 61.3434 74.0461 61.9756 74.0461 62.7551C74.0461 63.5353 74.6784 64.1668 75.4579 64.1668Z" fill="white"/>
<path d="M68.4608 64.1668H70.6586C71.4388 64.1668 72.071 63.5353 72.071 62.7551C72.071 61.9756 71.4388 61.3434 70.6586 61.3434H68.4608C67.6806 61.3434 67.0491 61.9756 67.0491 62.7551C67.0491 63.5353 67.6806 64.1668 68.4608 64.1668Z" fill="white"/>
<path d="M63.6641 76.7301H56.8697C56.0903 76.7301 55.458 77.3624 55.458 78.1418C55.458 78.9213 56.0903 79.5535 56.8697 79.5535H63.6641C64.4443 79.5535 65.0758 78.9213 65.0758 78.1418C65.0758 77.3624 64.4443 76.7301 63.6641 76.7301Z" fill="white"/>
<path d="M85.0491 76.7301H75.4579C74.6777 76.7301 74.0461 77.3624 74.0461 78.1418C74.0461 78.9213 74.6777 79.5535 75.4579 79.5535H85.0491C85.8293 79.5535 86.4616 78.9213 86.4616 78.1418C86.4616 77.3624 85.8293 76.7301 85.0491 76.7301Z" fill="white"/>
<path d="M70.6586 76.7301H68.4608C67.6806 76.7301 67.0483 77.3624 67.0483 78.1418C67.0483 78.9213 67.6806 79.5535 68.4608 79.5535H70.6586C71.4388 79.5535 72.0703 78.9213 72.0703 78.1418C72.0703 77.3624 71.4388 76.7301 70.6586 76.7301Z" fill="white"/>
<path d="M90.2601 0.325928H6.21435C2.7881 0.325928 0 3.1133 0 6.54028V74.8569C0 78.2832 2.7881 81.0705 6.21435 81.0705H11.5278C12.3073 81.0705 12.9395 80.439 12.9395 79.6588C12.9395 78.8794 12.3073 78.2471 11.5278 78.2471H6.21435C4.34482 78.2471 2.82417 76.7265 2.82417 74.8569V69.5008H54.2635V71.9341H53.144C51.6123 71.9341 50.3669 73.1795 50.3669 74.7112V78.2471H20.1122C19.3327 78.2471 18.7005 78.8794 18.7005 79.6588C18.7005 80.439 19.3327 81.0705 20.1122 81.0705H33.6876V86.1345H29.4245C26.5805 86.1345 24.2671 88.4486 24.2671 91.2919V94.342C24.2671 95.6396 25.3226 96.6951 26.6202 96.6951H69.746C71.0437 96.6951 72.0991 95.6396 72.0991 94.342V91.2919C72.0991 88.4486 69.7858 86.1345 66.9417 86.1345H62.6786V84.3496H88.7806C90.3116 84.3496 91.557 83.1042 91.557 81.5725V80.9079C94.309 80.269 96.3662 77.7996 96.3662 74.8569L96.473 6.53954C96.4737 3.1133 93.6863 0.325928 90.2601 0.325928ZM53.1911 66.1393V59.3715H88.7335V66.1393H53.1911ZM57.0869 56.5473V53.5767H84.837V56.5473H57.0869ZM84.837 68.9628V71.9341H57.0869V68.9628H84.837ZM36.5111 81.0705H50.3669V81.5733C50.3669 83.1042 51.6123 84.3496 53.144 84.3496H59.8552V86.1345H36.5111V81.0705ZM66.9425 88.9586C68.229 88.9586 69.2757 90.0053 69.2757 91.2919V93.8717H27.0905V91.2919C27.0905 90.0053 28.1379 88.9586 29.4245 88.9586H66.9425ZM88.7335 81.5254H53.1911V74.7583H88.7335V81.5254ZM93.5428 74.8569C93.5428 76.2245 92.7273 77.4029 91.5577 77.938V74.7105C91.5577 73.1795 90.3116 71.9341 88.7806 71.9341H87.6611V69.5008H93.5428V74.8569ZM93.5428 66.6774H91.5113C91.54 66.5176 91.5577 59.3244 91.5577 59.3244C91.5577 57.7927 90.3116 56.5473 88.7806 56.5473H87.6611V53.5767H88.7806C90.3116 53.5767 91.5577 52.3305 91.5577 50.7996V43.9375C91.5577 42.4066 90.3116 41.1605 88.7806 41.1605H80.8057C80.0255 41.1605 79.394 41.7927 79.394 42.5729C79.394 43.3524 80.0255 43.9846 80.8057 43.9846H88.7335V50.7525H53.1911V43.9846H72.0204C72.8006 43.9846 73.4321 43.3524 73.4321 42.5729C73.4321 41.7927 72.8006 41.1605 72.0204 41.1605H53.144C51.6123 41.1605 50.3669 42.4066 50.3669 43.9375V50.7996C50.3669 52.3305 51.6123 53.5767 53.144 53.5767H54.2635V56.5473H53.144C51.6123 56.5473 50.3669 57.7934 50.3669 59.3244C50.3669 59.3244 50.3846 66.5176 50.4133 66.6774H2.82417V19.532H93.5428V66.6774ZM93.5428 16.7079H2.92795V6.53954C2.92795 4.67075 4.4486 3.1501 6.31813 3.1501H90.1526C92.0221 3.1501 93.5428 4.67075 93.5428 6.54028V16.7079Z" fill="white"/>
<path d="M10.408 5.74524C8.12338 5.74524 6.26489 7.60373 6.26489 9.88838C6.26489 12.173 8.12338 14.0323 10.408 14.0323C12.6927 14.0323 14.5519 12.173 14.5519 9.88838C14.5519 7.60373 12.6927 5.74524 10.408 5.74524ZM10.408 11.2081C9.68083 11.2081 9.08832 10.6163 9.08832 9.88838C9.08832 9.16118 9.68083 8.56867 10.408 8.56867C11.136 8.56867 11.7277 9.16118 11.7277 9.88838C11.7277 10.6163 11.136 11.2081 10.408 11.2081Z" fill="white"/>
<path d="M20.9608 5.74524C18.6761 5.74524 16.8169 7.60373 16.8169 9.88838C16.8169 12.173 18.6761 14.0323 20.9608 14.0323C23.2454 14.0323 25.1039 12.173 25.1039 9.88838C25.1039 7.60373 23.2447 5.74524 20.9608 5.74524ZM20.9608 11.2081C20.2328 11.2081 19.6411 10.6163 19.6411 9.88838C19.6411 9.16118 20.2328 8.56867 20.9608 8.56867C21.688 8.56867 22.2805 9.16118 22.2805 9.88838C22.2805 10.6163 21.688 11.2081 20.9608 11.2081Z" fill="white"/>
<path d="M31.5116 5.74524C29.2269 5.74524 27.3684 7.60373 27.3684 9.88838C27.3684 12.173 29.2269 14.0323 31.5116 14.0323C33.7962 14.0323 35.6554 12.173 35.6554 9.88838C35.6554 7.60373 33.7962 5.74524 31.5116 5.74524ZM31.5116 11.2081C30.7843 11.2081 30.1918 10.6163 30.1918 9.88838C30.1918 9.16118 30.7843 8.56867 31.5116 8.56867C32.2395 8.56867 32.8313 9.16118 32.8313 9.88838C32.8313 10.6163 32.2395 11.2081 31.5116 11.2081Z" fill="white"/>
</svg>
