<svg width="88" height="113" viewBox="0 0 88 113" fill="none" xmlns="http://www.w3.org/2000/svg">
<path d="M86.2066 66.9964H75.5667V54.2192C77.6039 53.5322 79.0756 51.6046 79.0756 49.3385V45.8295C79.0756 44.923 78.3407 44.188 77.4341 44.188H70.4161C69.5095 44.188 68.7745 44.923 68.7745 45.8295V49.3385C68.7745 51.6046 70.2462 53.532 72.2837 54.2192V66.9964H66.7942V1.96745C66.7942 1.06089 66.0592 0.325928 65.1527 0.325928H23.0451C22.1385 0.325928 21.4035 1.06089 21.4035 1.96745V35.5116C20.4304 34.7434 19.2932 34.1778 18.0596 33.8944C15.4203 33.2881 12.7146 33.8889 10.6365 35.5433C8.55918 37.1976 7.36766 39.6677 7.36766 42.3206C7.36766 43.3053 7.53356 44.2729 7.86055 45.1968C8.04287 45.7114 7.96955 46.2804 7.66948 46.6823C5.87694 49.0826 5.22536 52.04 5.83535 55.0098C6.65283 58.9906 9.86277 62.2154 13.8226 63.034C14.0101 63.0727 14.1977 63.106 14.3855 63.1347V66.9966H1.99113C1.08457 66.9966 0.349609 67.7316 0.349609 68.6382C0.349609 69.5447 1.08457 70.2797 1.99113 70.2797H24.7995C25.7061 70.2797 26.441 69.5447 26.441 68.6382C26.441 67.7316 25.7061 66.9966 24.7995 66.9966H24.6866V61.5072H28.3084C29.215 61.5072 29.9499 60.7722 29.9499 59.8656C29.9499 58.9591 29.215 58.2241 28.3084 58.2241H24.9468C25.6352 57.084 26.0994 55.8187 26.3099 54.4893H28.3084C29.215 54.4893 29.9499 53.7544 29.9499 52.8478C29.9499 51.9412 29.215 51.2063 28.3084 51.2063H26.3104C26.0978 49.8854 25.6275 48.6234 24.9188 47.4715H40.5898C41.4964 47.4715 42.2314 46.7365 42.2314 45.83C42.2314 44.9234 41.4964 44.1885 40.5898 44.1885H24.6866V40.4537H28.3084C29.215 40.4537 29.9499 39.7187 29.9499 38.8122C29.9499 37.9056 29.215 37.1706 28.3084 37.1706H24.6866V33.4358H28.3084C29.215 33.4358 29.9499 32.7009 29.9499 31.7943C29.9499 30.8878 29.215 30.1528 28.3084 30.1528H24.6866V26.4178H40.5898C41.4964 26.4178 42.2314 25.6828 42.2314 24.7763C42.2314 23.8697 41.4964 23.1348 40.5898 23.1348H24.6866V19.3993H28.3084C29.215 19.3993 29.9499 18.6643 29.9499 17.7578C29.9499 16.8512 29.215 16.1163 28.3084 16.1163H24.6866V12.3815H28.3084C29.215 12.3815 29.9499 11.6465 29.9499 10.74C29.9499 9.8334 29.215 9.09843 28.3084 9.09843H24.6866V3.60897H63.5112V9.09843H47.6079C46.7013 9.09843 45.9664 9.8334 45.9664 10.74C45.9664 11.6465 46.7013 12.3815 47.6079 12.3815H63.5112V16.1163H47.6079C46.7013 16.1163 45.9664 16.8512 45.9664 17.7578C45.9664 18.6643 46.7013 19.3993 47.6079 19.3993H63.5112V23.1341H59.8893C58.9827 23.1341 58.2478 23.8691 58.2478 24.7756C58.2478 25.6822 58.9827 26.4171 59.8893 26.4171H63.5112V30.1521H47.6079C46.7013 30.1521 45.9664 30.8871 45.9664 31.7937C45.9664 32.7002 46.7013 33.4352 47.6079 33.4352H63.5112V37.17H47.6079C46.7013 37.17 45.9664 37.9049 45.9664 38.8115C45.9664 39.7181 46.7013 40.453 47.6079 40.453H63.5112V44.1878H59.8893C58.9827 44.1878 58.2478 44.9228 58.2478 45.8293C58.2478 46.7359 58.9827 47.4708 59.8893 47.4708H63.5112V51.2056H47.6079C46.7013 51.2056 45.9664 51.9406 45.9664 52.8472C45.9664 53.7537 46.7013 54.4887 47.6079 54.4887H63.5112V58.2235H47.6079C46.7013 58.2235 45.9664 58.9584 45.9664 59.865C45.9664 60.7715 46.7013 61.5065 47.6079 61.5065H63.5112V66.996H31.8176C30.911 66.996 30.176 67.7309 30.176 68.6375C30.176 69.544 30.911 70.279 31.8176 70.279H31.9305V81.0318H22.6625C21.9754 78.9946 20.0479 77.5229 17.7817 77.5229C14.9416 77.5229 12.631 79.8335 12.631 82.6734C12.631 85.5134 14.9416 87.824 17.7817 87.824C20.0479 87.824 21.9752 86.3523 22.6625 84.3149H31.9305V91.8287C29.8933 92.5157 28.4216 94.4433 28.4216 96.7095C28.4216 99.5495 30.7322 101.86 33.572 101.86C36.4118 101.86 38.7225 99.5493 38.7225 96.7095C38.7225 94.4433 37.2508 92.5159 35.2135 91.8287V70.279H42.4575V102.355C40.4202 103.042 38.9485 104.97 38.9485 107.236C38.9485 110.076 41.2589 112.387 44.099 112.387C46.939 112.387 49.2494 110.076 49.2494 107.237C49.2494 104.97 47.7777 103.043 45.7405 102.356V70.2794H52.9844V91.8291C50.9472 92.5161 49.4755 94.4437 49.4755 96.7099C49.4755 99.55 51.7861 101.86 54.6259 101.86C57.4658 101.86 59.7764 99.5497 59.7764 96.7099C59.7764 94.4437 58.3047 92.5164 56.2675 91.8291V84.3153H65.5355C66.2225 86.3526 68.1501 87.8245 70.4163 87.8245C73.2563 87.8245 75.5669 85.5139 75.5669 82.6738C75.5669 79.8338 73.2563 77.5234 70.4163 77.5234C68.1501 77.5234 66.2227 78.995 65.5355 81.0323H56.2675V70.2794H86.2068C87.1134 70.2794 87.8483 69.5445 87.8483 68.6379C87.8481 67.7314 87.1129 66.9964 86.2066 66.9964ZM21.4035 66.9964H17.6685V63.1266C18.9872 62.9173 20.254 62.4584 21.4035 61.7652V66.9964ZM20.5265 58.38C19.671 59.0768 18.7014 59.5513 17.6685 59.7932V56.3565C17.6685 55.4499 16.9336 54.715 16.027 54.715C15.1204 54.715 14.3855 55.4499 14.3855 56.3565V59.7936C11.7389 59.2027 9.60166 57.0293 9.0512 54.3493C8.6325 52.3107 9.07615 50.2855 10.3001 48.6466C11.2622 47.3583 11.5069 45.659 10.9554 44.1009C10.7531 43.5301 10.6507 42.9311 10.6507 42.3206C10.6507 40.6734 11.3909 39.1391 12.6816 38.1115C13.649 37.3411 14.8011 36.9426 16.0156 36.9426C16.4457 36.9426 16.8841 36.9927 17.3242 37.0938C19.2063 37.5263 20.734 39.0118 21.2162 40.8778C21.4941 41.9534 21.465 43.0074 21.1297 44.0107C20.5817 45.6512 20.8181 47.3883 21.7623 48.6573C22.6754 49.8848 23.158 51.3337 23.158 52.8474C23.158 55.0013 22.1989 57.0179 20.5265 58.38ZM17.7815 84.5412C16.7517 84.5412 15.9138 83.7034 15.9138 82.6736C15.9138 81.6438 16.7517 80.8062 17.7815 80.8062C18.8112 80.8062 19.6489 81.644 19.6489 82.6736C19.6491 83.7036 18.8112 84.5412 17.7815 84.5412ZM35.4392 96.7097C35.4392 97.7393 34.6016 98.5771 33.5718 98.5771C32.542 98.5771 31.7044 97.7393 31.7044 96.7097C31.7044 95.6801 32.5422 94.8423 33.5718 94.8423C34.6014 94.8423 35.4392 95.6801 35.4392 96.7097ZM45.9664 107.237C45.9664 108.266 45.1288 109.104 44.099 109.104C43.0692 109.104 42.2316 108.266 42.2316 107.237C42.2316 106.207 43.0694 105.369 44.099 105.369C45.1285 105.369 45.9664 106.207 45.9664 107.237ZM56.4933 96.7097C56.4933 97.7393 55.6555 98.5771 54.6259 98.5771C53.5962 98.5771 52.7585 97.7393 52.7585 96.7097C52.7585 95.6801 53.5964 94.8423 54.6259 94.8423C55.6555 94.8423 56.4933 95.6801 56.4933 96.7097ZM70.4161 80.8062C71.4458 80.8062 72.2837 81.644 72.2837 82.6736C72.2837 83.7034 71.4458 84.5412 70.4161 84.5412C69.3863 84.5412 68.5487 83.7034 68.5487 82.6736C68.5487 81.644 69.3863 80.8062 70.4161 80.8062ZM73.9254 51.2058C72.8956 51.2058 72.0578 50.368 72.0578 49.3385V47.4711H75.7928V49.3385C75.7926 50.3682 74.9547 51.2058 73.9254 51.2058Z" fill="white"/>
</svg>
