<svg width="170" height="170" viewBox="0 0 170 170" fill="none" xmlns="http://www.w3.org/2000/svg">
<path d="M1.26343 26.7795C1.26343 11.8583 13.4669 -0.212647 28.4375 0.00284093C42.939 0.211357 54.7304 12.1041 54.822 26.6065C54.8735 34.7283 51.3082 42.0174 45.643 46.9617C45.0451 47.4833 45.1314 48.4356 45.8144 48.8397L50.8602 51.8253C51.676 52.3081 51.3337 53.5585 50.3858 53.5585L27.5361 53.5528C12.9801 53.2822 1.26343 41.3998 1.26343 26.7795Z" fill="#67A80E"/>
<path d="M50.8604 51.8254L45.8141 48.8398C45.1348 48.4381 45.0405 47.4871 45.6352 46.9685C51.365 41.9717 54.949 34.5764 54.8192 26.3467C54.5944 12.1115 43.0729 0.426337 28.8417 0.0116299C26.8236 -0.0471397 24.854 0.11788 22.9558 0.482782C35.2566 2.84087 44.6311 13.6833 44.7128 26.6063C44.7523 32.8648 42.6442 38.6289 39.0829 43.2066C36.9323 45.9707 37.6312 49.979 40.6454 51.7627L40.751 51.8251C41.5578 52.3026 41.2305 53.5291 40.3064 53.5557L50.3855 53.558C51.3335 53.5586 51.6762 52.3079 50.8604 51.8254Z" fill="#2F7356"/>
<path d="M131.747 97.2038H70.9968C55.8236 97.2038 47.5202 79.5212 57.2112 67.8456L57.7501 67.1962C62.0193 62.0527 64.3562 55.5784 64.3562 48.8939V37.1789C64.3565 16.6454 81.0019 0 101.535 0C122.069 0 138.714 16.6454 138.714 37.1789V49.2894C138.714 56.0439 141.1 62.5813 145.451 67.748C155.263 79.3997 146.98 97.2038 131.747 97.2038Z" fill="#C59191"/>
<path d="M163.682 127.311V167.473H39.0637V127.613C39.0637 118.588 44.4725 110.444 52.7866 106.944L72.9043 98.1984L79.6778 95.2533C84.8176 93.0188 88.1412 87.9486 88.1412 82.3439V79.7441H114.601V82.2111C114.601 87.8391 117.958 92.9291 123.134 95.1471L150.344 106.811C158.452 110.404 163.682 118.439 163.682 127.311Z" fill="white"/>
<path d="M72.9027 107.774C79.7688 109.826 89.8748 112.014 102.194 111.798C113.752 111.596 123.24 109.349 129.842 107.24L133.123 99.4285L123.133 95.1469C117.958 92.9286 114.603 87.8402 114.603 82.2096V79.7446H88.143V82.3438C88.143 87.9478 84.8187 93.0176 79.6798 95.2522L71.5889 98.7701L72.9027 107.774Z" fill="#FFCEBF"/>
<path d="M150.343 106.809L129.846 98.0242L129.842 98.0245V167.472H163.682V127.311C163.682 118.44 158.453 110.403 150.343 106.809Z" fill="#67A80E"/>
<path d="M72.9043 98.1982V167.473H39.0637V127.613C39.0637 118.588 44.4725 110.444 52.7865 106.944L72.9043 98.1982Z" fill="#67A80E"/>
<path d="M110.544 94.2675C113.589 94.2675 116.489 93.6562 119.133 92.5532C116.297 89.9351 114.602 86.2097 114.602 82.2097V79.7446H88.1426V82.3435C88.1426 84.3679 87.7067 86.3219 86.9102 88.0983C90.9168 91.9177 96.3372 94.2671 102.309 94.2671H110.544V94.2675Z" fill="#FFB09E"/>
<path d="M127.818 39.9412V61.8304C127.818 74.162 117.821 84.1585 105.49 84.1585H97.2548C84.9232 84.1585 74.9268 74.1617 74.9268 61.8304V39.9412C74.9268 31.919 81.4299 25.4155 89.4524 25.4155H113.292C121.314 25.4159 127.818 31.919 127.818 39.9412Z" fill="#FFCEBF"/>
<path d="M127.817 51.3296C127.807 51.3598 127.795 51.389 127.786 51.4199C126.979 54.2073 124.861 59.4727 119.741 63.4202C117.358 65.2586 114.639 66.5867 111.661 67.3683C110.311 67.7226 109.503 69.1042 109.857 70.4542C110.155 71.5895 111.179 72.3408 112.3 72.3408C112.513 72.3408 112.728 72.314 112.944 72.2575C116.58 71.3032 119.906 69.6766 122.828 67.4231C124.847 65.8666 126.48 64.1473 127.803 62.4188C127.808 62.2229 127.818 62.028 127.818 61.8307V51.3296H127.817Z" fill="#7A6D79"/>
<path d="M108.889 74.3547H102.967C100.271 74.3547 98.0857 72.1693 98.0857 69.4735C98.0857 66.7777 100.271 64.5923 102.967 64.5923H108.889C111.585 64.5923 113.771 66.7777 113.771 69.4735C113.77 72.1696 111.585 74.3547 108.889 74.3547Z" fill="#685E68"/>
<path d="M106.649 19.6221C107.216 12.4701 114.063 7.72374 120.616 5.26538C131.457 11.7609 138.714 23.6214 138.714 37.1786V39.7345C138.115 39.8604 137.519 39.9706 136.929 40.0586C133.319 40.5978 130.245 40.3644 128.144 40.0586C114.61 38.2557 105.964 28.2599 106.649 19.6221Z" fill="#B98080"/>
<path d="M101.535 0C109.932 0 117.678 2.78441 123.901 7.479C120.797 12.8815 113.667 23.5629 100.299 31.4706C90.3743 37.3412 81.0163 39.3138 75.2535 40.0585H64.3569V37.1785C64.3566 16.6454 81.002 0 101.535 0V0Z" fill="#C59191"/>
<path d="M143.096 167.473H62.1952L57.733 125.379C57.4166 122.394 59.7571 119.792 62.7593 119.792H142.532C145.534 119.792 147.875 122.394 147.559 125.379L143.096 167.473Z" fill="#C7C7C7"/>
<path d="M142.531 119.792H132.422C135.425 119.792 137.765 122.394 137.449 125.379L132.986 167.473H143.096L147.558 125.379C147.874 122.394 145.534 119.792 142.531 119.792Z" fill="#444444"/>
<path d="M167.51 170H2.49023C1.11463 170 0 168.885 0 167.51C0 166.134 1.11463 165.02 2.49023 165.02H167.51C168.885 165.02 170 166.134 170 167.51C170 168.885 168.885 170 167.51 170Z" fill="#C9BFC8"/>
<path d="M17.9346 29.3064C19.3302 29.3064 20.4617 28.175 20.4617 26.7793C20.4617 25.3836 19.3302 24.2522 17.9346 24.2522C16.5389 24.2522 15.4075 25.3836 15.4075 26.7793C15.4075 28.175 16.5389 29.3064 17.9346 29.3064Z" fill="white"/>
<path d="M28.044 29.3064C29.4396 29.3064 30.5711 28.175 30.5711 26.7793C30.5711 25.3836 29.4396 24.2522 28.044 24.2522C26.6483 24.2522 25.5168 25.3836 25.5168 26.7793C25.5168 28.175 26.6483 29.3064 28.044 29.3064Z" fill="white"/>
<path d="M38.1526 29.3064C39.5482 29.3064 40.6796 28.175 40.6796 26.7793C40.6796 25.3836 39.5482 24.2522 38.1526 24.2522C36.7569 24.2522 35.6255 25.3836 35.6255 26.7793C35.6255 28.175 36.7569 29.3064 38.1526 29.3064Z" fill="white"/>
</svg>
