<svg width="92" height="92" viewBox="0 0 92 92" fill="none" xmlns="http://www.w3.org/2000/svg">
<path d="M91.7773 75.0949C91.4872 72.9025 90.2215 71.0121 88.3051 69.9088L65.7963 56.9491C63.0395 55.3618 59.5422 55.8239 57.292 58.0739L52.8585 62.5074C51.6787 63.6874 49.8122 63.7918 48.5177 62.75C45.0226 59.9376 41.5812 56.8425 38.2894 53.5505C34.9976 50.2587 31.9024 46.8175 29.0899 43.3221C28.048 42.0275 28.1523 40.1611 29.3324 38.9812L33.7658 34.5476C36.0158 32.2979 36.4785 28.8009 34.8908 26.0435L21.9311 3.53467C20.8275 1.61811 18.9374 0.352622 16.745 0.062557C14.5523 -0.2281 12.3979 0.503173 10.8341 2.067L4.15372 8.74757C-0.508799 13.4103 -0.58368 21.9392 3.94287 32.7637C8.29543 43.1718 16.418 54.6293 26.8141 65.0258C37.2105 75.422 48.6681 83.5446 59.0763 87.8972C64.4045 90.1253 69.176 91.2387 73.2046 91.2385C77.3601 91.2385 80.7248 90.0536 83.0924 87.6862L89.7728 81.0056C91.3364 79.4418 92.0671 77.2873 91.7773 75.0949ZM64.3216 59.5106L86.8304 72.4703C87.9436 73.1112 88.6786 74.2092 88.8469 75.4825C88.9883 76.5512 88.7107 77.6034 88.0813 78.4514L58.1673 61.3789L59.3822 60.164C60.6889 58.8574 62.7205 58.5888 64.3216 59.5106ZM16.3572 2.99297C17.6307 3.16145 18.7285 3.89647 19.3693 5.00963L32.3291 27.5185C33.2513 29.1199 32.9825 31.1512 31.6758 32.4577L30.5599 33.5736L13.3936 3.75853C14.0954 3.23889 14.9346 2.95671 15.8095 2.95671C15.991 2.95671 16.1741 2.96873 16.3572 2.99297ZM81.0021 85.596C77.2978 89.3002 69.7219 89.145 60.2167 85.17C50.1551 80.9624 39.035 73.066 28.9044 62.9356C18.7738 52.805 10.8774 41.6848 6.66992 31.6233C2.69473 22.118 2.53964 14.542 6.24389 10.8375L11.2032 5.87805L28.3953 35.7382L27.2423 36.8912C24.9929 39.1408 24.797 42.702 26.7869 45.1754C29.6657 48.7532 32.8325 52.2741 36.199 55.6406C39.5659 59.0073 43.0869 62.1742 46.6644 65.053C49.1375 67.0428 52.6987 66.8472 54.9486 64.5974L56.0005 63.5455L85.9561 80.6418L81.0021 85.596Z" fill="white"/>
</svg>
