<svg width="96" height="97" viewBox="0 0 96 97" fill="none" xmlns="http://www.w3.org/2000/svg">
<path d="M89.7956 35.1928C86.2622 31.0402 81.4671 28.1721 76.1961 27.0352C75.7524 19.9884 72.7648 13.429 67.7106 8.4603C62.3751 3.21469 55.3262 0.325928 47.8625 0.325928C41.5872 0.325928 35.6394 2.34307 30.6617 6.15898C29.2228 7.26206 30.9291 9.48766 32.3681 8.38458C36.8517 4.94727 42.2096 3.13037 47.8625 3.13037C54.5862 3.13037 60.937 5.73345 65.7447 10.4601C70.5467 15.1809 73.2802 21.4944 73.4418 28.2374C73.4579 28.9099 73.9494 29.476 74.6127 29.5869C79.6719 30.4316 84.3054 33.0678 87.6597 37.0103C91.0522 40.9972 92.9205 46.0875 92.9205 51.3436C92.9205 63.5059 83.0851 73.4007 70.9954 73.4007H58.6233V60.948H68.0823C69.2516 60.948 69.908 59.5387 69.1557 58.6435L48.9358 34.5887C48.2203 33.922 47.5046 33.922 46.7891 34.5887L26.5691 58.6433C25.8168 59.5383 26.4732 60.9478 27.6424 60.9478H37.1014V73.4005H24.7296C12.6398 73.4007 2.80444 63.5059 2.80444 51.3436C2.80444 46.0875 4.67276 40.997 8.06539 37.0101C11.4199 33.0678 16.0536 30.4314 21.1126 29.5867C21.7761 29.476 22.2675 28.9097 22.2835 28.2372C22.4123 22.8519 24.1775 17.732 27.3878 13.4309C28.4722 11.9778 26.2249 10.3006 25.1403 11.7533C21.8066 16.2198 19.8783 21.4819 19.5292 27.0349C14.258 28.1718 9.46293 31.0398 5.92971 35.1924C2.10576 39.6864 0 45.4223 0 51.3436C0 65.0522 11.0936 76.2051 24.7296 76.2051H37.1016V94.6486C37.1016 95.423 37.7293 96.0508 38.5039 96.0508H57.2213C57.9958 96.0508 58.6235 95.423 58.6235 94.6486V88.5271C58.6235 86.7141 55.819 86.7141 55.819 88.5271V93.2464H39.9061V59.5456C39.9061 58.7712 39.2784 58.1434 38.5039 58.1434H30.6531L47.8625 37.6702L65.072 58.1434H57.2213C56.4467 58.1434 55.819 58.7712 55.819 59.5456V81.1387C55.819 82.9517 58.6235 82.9517 58.6235 81.1387V76.2049H70.9956C84.6315 76.2049 95.7251 65.0522 95.7251 51.3434C95.7249 45.4223 93.6192 39.6864 89.7956 35.1928Z" fill="white"/>
</svg>
