<svg width="87" height="87" viewBox="0 0 87 87" fill="none" xmlns="http://www.w3.org/2000/svg">
<path d="M86.7168 25.8305C86.7346 23.3725 84.3486 21.3669 81.9248 21.8234L73.2224 23.4384C69.1419 24.2006 68.8525 30.1748 72.8691 31.3095L67.192 38.1838L38.9551 1.66317C37.3405 -0.42481 33.9888 -0.35828 32.4559 1.78413L15.1419 25.9928C14.1942 27.318 16.2442 28.7842 17.1917 27.459L34.5058 3.25049C35.0736 2.45649 36.3636 2.43196 36.9615 3.20496L66.1628 40.9728C66.8089 41.6145 67.465 41.625 68.1313 41.0044L76.6008 30.749C77.3311 29.8648 76.54 28.5031 75.409 28.7061L74.2479 28.9124C72.3073 29.2717 71.7423 26.2796 73.6839 25.9163L82.3885 24.3009C83.3014 24.1279 84.2038 24.898 84.197 25.8219L84.198 34.6877C84.2096 36.639 81.2383 36.5731 81.1405 34.683V33.6313C81.1405 32.4764 79.6493 31.9373 78.9112 32.8261L68.2679 45.6348C67.6725 46.3559 66.4482 46.3353 65.8772 45.5964L36.8346 8.03361C36.148 7.36898 35.4741 7.38141 34.8129 8.07141L6.00724 48.3475C4.9278 49.8567 2.40301 48.1361 3.51773 46.5777L13.3041 32.8944C14.2518 31.5692 12.2021 30.1034 11.2542 31.4283L1.46772 45.1117C-1.4996 49.2609 5.05935 54.0042 8.05691 49.8136L35.8772 10.9154L63.8831 47.1375C65.4131 49.1164 68.6106 49.1772 70.2084 47.2421L79.093 36.5496C80.9686 40.1683 86.7422 38.7684 86.7178 34.6797L86.7168 25.8305Z" fill="white"/>
<path d="M75.9868 52.8713C72.9032 51.8817 69.6936 52.9449 67.8099 55.5787C67.2871 56.3097 66.9101 57.1175 66.6863 57.9693C63.9986 55.4678 59.6388 55.3294 56.8697 57.7695V48.9838C56.8697 42.7896 49.4377 39.462 44.7735 43.4429V31.382C44.7735 22.0012 30.1568 21.9022 30.1568 31.382V40.8415C25.477 36.8638 18.0605 40.2008 18.0605 46.3896V57.7549C13.3807 53.777 5.96411 57.1144 5.96411 63.3029V84.8759C5.96411 85.572 6.52811 86.136 7.22416 86.136H79.8025C80.4986 86.136 81.0626 85.572 81.0626 84.8759V59.8301C81.0626 56.5919 79.0702 53.8605 75.9868 52.8713ZM48.0141 44.4525C51.0586 43.4132 54.3496 45.748 54.3496 48.9838V83.6162H44.7735V48.9759C44.777 46.4558 46.449 44.9869 48.0141 44.4525ZM8.4842 63.3031C8.4842 57.0689 18.0605 57.0867 18.0605 63.3031V83.6161H8.4842V63.3031ZM20.5806 46.3896C20.5806 40.1557 30.1568 40.1734 30.1568 46.3896V83.6161H20.5806V46.3896ZM32.6769 31.382C32.6769 25.1478 42.2534 25.1656 42.2534 31.382V48.975C42.2534 48.9779 42.2532 48.9808 42.2532 48.9836C42.2532 48.9848 42.2534 48.9858 42.2534 48.9868V83.6159H32.6769V31.382ZM78.5425 83.6161H68.9662V78.9084C68.9662 77.2792 66.4461 77.2792 66.4461 78.9084V83.6161H56.8697V63.3031C56.8697 57.1556 66.4375 57.0768 66.4461 63.2952V72.1982C66.4461 73.8274 68.9662 73.8274 68.9662 72.1982V63.3063C68.9662 63.3051 68.9663 63.3041 68.9663 63.3031C68.9663 63.3003 68.9662 63.2974 68.9662 63.2945V59.8301C68.9662 58.8254 69.2751 57.8622 69.8598 57.0449C71.3577 54.9504 73.6097 54.7553 75.217 55.2709C76.8246 55.7865 78.5425 57.2552 78.5425 59.8301V83.6161Z" fill="white"/>
</svg>
