<svg width="92" height="83" viewBox="0 0 92 83" fill="none" xmlns="http://www.w3.org/2000/svg">
<path d="M87.2308 29.7266C84.6852 29.7266 82.6142 31.7976 82.6142 34.3432V34.6235L71.53 40.7124V39.4588C71.53 36.3934 69.539 33.7858 66.7831 32.8565C72.0464 29.8344 75.5999 24.1506 75.5999 17.6506C75.5999 7.99327 67.7557 0.136475 58.1141 0.136475C50.8412 0.136475 44.5923 4.60731 41.9601 10.9487C39.328 4.60731 33.0791 0.136475 25.8064 0.136475C23.6249 0.136475 21.4949 0.534928 19.4757 1.32079C18.788 1.58844 18.4473 2.36325 18.7149 3.05092C18.9828 3.73877 19.7572 4.07931 20.4453 3.81165C22.154 3.14661 23.9579 2.80928 25.8064 2.80928C33.9741 2.80928 40.619 9.46698 40.619 17.6502C40.619 25.8337 33.9741 32.4914 25.8064 32.4914C17.6386 32.4914 10.9936 25.8337 10.9936 17.6502C10.9936 13.8095 12.4527 10.1664 15.102 7.39221C15.6118 6.85832 15.5924 6.01241 15.0585 5.50258C14.5248 4.99276 13.6789 5.01236 13.1689 5.54607C10.0424 8.81994 8.32059 13.1186 8.32059 17.6502C8.32059 24.1501 11.8741 29.8341 17.1374 32.8561C14.3813 33.7855 12.3903 36.393 12.3903 39.4584V41.4637H9.84259V41.3821C9.84259 38.8365 7.77156 36.7655 5.22598 36.7655C2.68041 36.7655 0.609375 38.837 0.609375 41.3826V53.2357C0.609375 55.7813 2.68041 57.8523 5.22598 57.8523C7.77156 57.8523 9.84259 55.7813 9.84259 53.2357V53.1541H12.3899V75.9814C12.3899 79.8232 15.5154 82.9486 19.3572 82.9486H64.5629C68.4045 82.9486 71.53 79.8232 71.53 75.9814V71.5387C71.53 70.8006 70.9318 70.2022 70.1935 70.2022C69.4552 70.2022 68.857 70.8006 68.857 71.5387V75.9814C68.857 78.3493 66.9307 80.2757 64.5629 80.2757H19.3572C16.9894 80.2757 15.0629 78.3493 15.0629 75.9814V39.459C15.0629 37.0912 16.9894 35.1649 19.3572 35.1649H64.5629C66.9307 35.1649 68.857 37.0912 68.857 39.459V64.4129C68.857 65.151 69.4552 65.7494 70.1935 65.7494C70.9318 65.7494 71.53 65.151 71.53 64.4129V58.6123L82.6142 64.701V64.9814C82.6142 67.5269 84.6852 69.598 87.2308 69.598C89.7763 69.598 91.8474 67.5271 91.8474 64.9815V34.3434C91.8474 31.7976 89.7763 29.7266 87.2308 29.7266ZM7.1696 53.2357C7.1696 54.3074 6.29767 55.1793 5.22598 55.1793C4.15429 55.1793 3.28236 54.3074 3.28236 53.2357V41.3826C3.28236 40.3109 4.15429 39.439 5.22598 39.439C6.29767 39.439 7.1696 40.3109 7.1696 41.3826V53.2357ZM9.84259 50.4811V44.1372H12.3899V50.4811H9.84259ZM58.1139 2.80982C66.2817 2.80982 72.9267 9.46752 72.9267 17.651C72.9267 25.8342 66.2817 32.4919 58.1139 32.4919C49.9461 32.4919 43.3011 25.8342 43.3011 17.651C43.3011 9.46734 49.9461 2.80982 58.1139 2.80982ZM35.0799 32.4917C38.1365 30.5686 40.5599 27.7254 41.9598 24.3525C43.3599 27.7254 45.7832 30.5686 48.8397 32.4917H35.0799ZM71.53 55.5626V43.7621L82.614 37.6734V61.6513L71.53 55.5626ZM89.1744 64.9815C89.1744 66.0532 88.3024 66.9252 87.2308 66.9252C86.1591 66.9252 85.2871 66.0532 85.2871 64.9815C85.2871 54.7688 85.2871 44.5562 85.2871 34.3434C85.2871 33.2717 86.1591 32.3998 87.2308 32.3998C88.3024 32.3998 89.1744 33.2715 89.1744 34.3434V64.9815Z" fill="white"/>
<path d="M18.2964 72.1057C18.2964 74.9622 20.6173 77.2861 23.47 77.2861C26.3228 77.2861 28.6437 74.9622 28.6437 72.1057C28.6437 69.2491 26.3228 66.9252 23.47 66.9252C20.6173 66.9252 18.2964 69.2491 18.2964 72.1057ZM25.9707 72.1057C25.9707 73.4883 24.8489 74.6131 23.47 74.6131C22.0911 74.6131 20.9694 73.4883 20.9694 72.1057C20.9694 70.723 22.0911 69.5982 23.47 69.5982C24.8489 69.5982 25.9707 70.723 25.9707 72.1057Z" fill="white"/>
<path d="M30.1699 72.1057C30.1699 74.9622 32.4908 77.2861 35.3436 77.2861C38.1964 77.2861 40.5171 74.9622 40.5171 72.1057C40.5171 69.2491 38.1964 66.9252 35.3436 66.9252C32.4908 66.9252 30.1699 69.2491 30.1699 72.1057ZM37.8442 72.1057C37.8442 73.4883 36.7225 74.6131 35.3438 74.6131C33.9649 74.6131 32.8431 73.4883 32.8431 72.1057C32.8431 70.723 33.9649 69.5982 35.3438 69.5982C36.7225 69.5982 37.8442 70.723 37.8442 72.1057Z" fill="white"/>
<path d="M25.7997 29.5292C32.3392 29.5292 37.6597 24.2005 37.6597 17.6508C37.6597 11.1009 32.3394 5.77222 25.7997 5.77222C19.2599 5.77222 13.9395 11.1009 13.9395 17.6508C13.9396 24.2007 19.2599 29.5292 25.7997 29.5292ZM25.7997 8.44539C30.8655 8.44539 34.9867 12.575 34.9867 17.651C34.9867 22.7268 30.8655 26.8564 25.7997 26.8564C20.7338 26.8564 16.6124 22.7268 16.6124 17.651C16.6126 12.5748 20.734 8.44539 25.7997 8.44539Z" fill="white"/>
<path d="M58.1193 29.5292C64.6589 29.5292 69.9794 24.2005 69.9794 17.6508C69.9794 11.1009 64.6591 5.77222 58.1193 5.77222C51.5796 5.77222 46.2593 11.1009 46.2593 17.6508C46.2595 24.2007 51.5798 29.5292 58.1193 29.5292ZM58.1193 8.44539C63.1852 8.44539 67.3064 12.575 67.3064 17.651C67.3064 22.7268 63.1852 26.8564 58.1193 26.8564C53.0535 26.8564 48.9323 22.7268 48.9323 17.651C48.9324 12.5748 53.0537 8.44539 58.1193 8.44539Z" fill="white"/>
<path d="M22.7737 20.6943C23.404 21.2157 24.0339 21.2151 24.6637 20.6927L25.8118 19.5426L26.9599 20.6927C27.5897 21.2151 28.2198 21.2157 28.8499 20.6943C29.3724 20.1727 29.3731 19.3266 28.8515 18.8041L27.7002 17.6508L28.8515 16.4975C29.3731 15.975 29.3724 15.1289 28.8499 14.6073C28.3274 14.0857 27.4812 14.0866 26.9599 14.6089L25.8118 15.759L24.6637 14.6089C24.1421 14.0866 23.2958 14.0859 22.7737 14.6073C22.2512 15.1289 22.2505 15.975 22.7721 16.4975L23.9234 17.6508L22.7721 18.8041C22.2505 19.3266 22.2512 20.1727 22.7737 20.6943Z" fill="white"/>
<path d="M55.0737 20.6943C55.704 21.2157 56.3339 21.2151 56.9637 20.6927L58.1118 19.5426L59.26 20.6927C59.8897 21.2151 60.5198 21.2157 61.15 20.6943C61.6724 20.1727 61.6731 19.3266 61.1516 18.8041L60.0002 17.6508L61.1516 16.4975C61.6731 15.975 61.6724 15.1289 61.15 14.6073C60.6275 14.0857 59.7812 14.0866 59.26 14.6089L58.1118 15.759L56.9637 14.6089C56.4423 14.0866 55.596 14.0859 55.0737 14.6073C54.5512 15.1289 54.5505 15.975 55.0721 16.4975L56.2235 17.6508L55.0721 18.8041C54.5507 19.3266 54.5514 20.1727 55.0737 20.6943Z" fill="white"/>
</svg>
