<svg width="219" height="152" fill="none" xmlns="http://www.w3.org/2000/svg"><path d="M7.709 146.782c0 .853-.102 1.596-.317 2.235-.21.639-.52 1.167-.933 1.585-.407.423-.91.737-1.502.945-.592.209-1.304.314-2.124.314H.793a.503.503 0 01-.317-.123c-.102-.08-.155-.215-.155-.412v-8.8c0-.197.053-.338.155-.418a.5.5 0 01.317-.116h2.178c.837 0 1.537.11 2.112.331a3.816 3.816 0 011.441.952c.395.412.688.915.886 1.511.203.583.299 1.253.299 1.996zm-1.34.049a5.44 5.44 0 00-.198-1.492 3.312 3.312 0 00-.598-1.192 2.972 2.972 0 00-1.047-.786c-.419-.184-.963-.282-1.627-.282H1.601v7.682h1.31c.616 0 1.137-.08 1.555-.239a2.564 2.564 0 001.053-.719c.281-.325.497-.737.64-1.228.138-.491.21-1.075.21-1.744zm10.204 4.484c0 .092-.006.172-.012.245a.533.533 0 01-.054.166.262.262 0 01-.09.105.201.201 0 01-.101.03h-4.613a.553.553 0 01-.323-.116c-.107-.08-.155-.222-.155-.418v-8.8c0-.203.048-.338.155-.418a.518.518 0 01.323-.123h4.559a.21.21 0 01.185.135c.018.05.036.105.048.172.012.068.024.154.024.252 0 .092-.012.178-.024.246a.797.797 0 01-.048.166.257.257 0 01-.077.098.204.204 0 01-.108.024h-3.763v3.096h3.23a.21.21 0 01.102.036.226.226 0 01.084.099.357.357 0 01.048.165c.012.074.018.154.018.252 0 .092-.006.172-.018.24a.356.356 0 01-.048.153.177.177 0 01-.084.092.188.188 0 01-.101.025h-3.231v3.531h3.817c.036 0 .072.012.102.031a.276.276 0 01.09.098.533.533 0 01.053.166 2.8 2.8 0 01.012.252zm7.474.303a.604.604 0 01-.084.141.323.323 0 01-.143.08.992.992 0 01-.24.049c-.095 0-.215.007-.359.007-.107 0-.203 0-.287-.007a1.91 1.91 0 01-.21-.012 1.293 1.293 0 01-.155-.037.413.413 0 01-.107-.049.205.205 0 01-.072-.074c-.012-.03-.03-.061-.048-.104l-3.14-9.162a1.09 1.09 0 01-.067-.271c0-.073.024-.123.066-.159.042-.037.12-.056.215-.068a4.34 4.34 0 01.73-.006.79.79 0 01.192.043.266.266 0 01.101.08c.024.03.042.08.06.123l2.758 8.309h.012l2.68-8.291a.5.5 0 01.048-.135.195.195 0 01.108-.086.912.912 0 01.203-.043c.09-.006.21-.012.36-.012.155 0 .274.006.364.024.09.012.15.031.18.068.036.037.048.092.036.159a1.35 1.35 0 01-.066.271l-3.135 9.162zm11.571-.303c0 .092-.006.172-.018.245a.53.53 0 01-.054.166.306.306 0 01-.084.105.206.206 0 01-.107.03h-4.613a.553.553 0 01-.323-.116c-.102-.08-.155-.222-.155-.418v-8.8c0-.203.053-.338.155-.418a.518.518 0 01.323-.123h4.559a.21.21 0 01.108.037c.035.019.06.055.077.098.024.05.042.105.054.172a1.5 1.5 0 01.018.252c0 .092-.006.178-.018.246a.54.54 0 01-.054.166.212.212 0 01-.077.098.204.204 0 01-.108.024h-3.757v3.096h3.225c.041 0 .071.018.107.036a.26.26 0 01.078.099.356.356 0 01.048.165c.018.074.018.154.018.252 0 .092 0 .172-.018.24a.354.354 0 01-.048.153.195.195 0 01-.078.092.209.209 0 01-.107.025h-3.225v3.531h3.81c.043 0 .078.012.108.031a.33.33 0 01.084.098.53.53 0 01.054.166c.012.067.018.153.018.252zm8.61-.041c0 .105-.006.191-.018.264a1.172 1.172 0 01-.042.172c-.03.043-.054.08-.09.105a.168.168 0 01-.108.037h-4.253a.548.548 0 01-.323-.117c-.102-.086-.15-.221-.15-.418v-9.138a.18.18 0 01.03-.11.2.2 0 01.102-.068.94.94 0 01.197-.049c.09-.006.186-.018.305-.018.126 0 .228.012.312.018.077.012.143.031.197.049a.231.231 0 01.102.068c.018.037.03.067.03.11v8.53h3.451c.042 0 .078.013.108.037.036.025.06.055.09.105.018.043.03.098.042.165.012.074.018.16.018.258zm10.656-4.469c0 .798-.09 1.523-.275 2.161a4.423 4.423 0 01-.82 1.634 3.527 3.527 0 01-1.37 1.038c-.55.245-1.19.362-1.926.362-.724 0-1.346-.11-1.872-.331a3.258 3.258 0 01-1.304-.965c-.347-.423-.605-.945-.772-1.572-.174-.62-.251-1.345-.251-2.155 0-.78.09-1.486.275-2.119.18-.639.454-1.179.825-1.621.365-.449.82-.792 1.37-1.032.55-.239 1.19-.362 1.92-.362.713 0 1.329.11 1.855.325.527.221.963.541 1.31.964.353.418.61.934.778 1.554.174.614.257 1.32.257 2.119zm-1.346.092c0-.559-.053-1.075-.15-1.554a3.647 3.647 0 00-.478-1.253 2.337 2.337 0 00-.903-.829c-.377-.196-.844-.294-1.394-.294-.556 0-1.023.104-1.4.319a2.68 2.68 0 00-.915.854 3.648 3.648 0 00-.503 1.246c-.102.473-.15.97-.15 1.499 0 .577.042 1.117.138 1.602.096.486.252.909.473 1.259.227.357.526.633.897.829.377.191.844.289 1.406.289.556 0 1.03-.104 1.406-.319.383-.209.688-.504.921-.866a3.64 3.64 0 00.497-1.259 7.34 7.34 0 00.155-1.523zm10.811-2.019c0 .497-.078.94-.24 1.333a2.776 2.776 0 01-.682 1.019 3.048 3.048 0 01-1.083.651c-.43.147-.939.227-1.531.227h-1.095v3.55c0 .043-.012.08-.03.104a.209.209 0 01-.108.08 1.026 1.026 0 01-.19.043 2.21 2.21 0 01-.312.019c-.12 0-.227-.007-.305-.019a.993.993 0 01-.198-.043c-.053-.018-.083-.043-.101-.08a.144.144 0 01-.036-.104v-9.101c0-.203.054-.35.161-.436a.519.519 0 01.347-.129h2.058c.21 0 .407.006.599.024.191.019.412.056.676.117.257.055.526.166.79.325a2.456 2.456 0 011.124 1.407c.102.307.156.645.156 1.013zm-1.347.111c0-.406-.071-.737-.22-1.008a1.632 1.632 0 00-.54-.601 1.719 1.719 0 00-.67-.252 4.26 4.26 0 00-.67-.055h-1.184v3.961h1.149c.389 0 .712-.056.963-.154a1.77 1.77 0 00.646-.424c.174-.184.305-.399.395-.651.084-.251.131-.522.131-.816zm15.243 6.675a.207.207 0 01-.03.104.238.238 0 01-.107.068c-.054.018-.12.037-.198.049a2.09 2.09 0 01-.31.019 2.15 2.15 0 01-.3-.019 1.128 1.128 0 01-.203-.049.218.218 0 01-.102-.068.208.208 0 01-.03-.104v-8.598h-.018l-3.38 8.635c-.018.031-.042.061-.066.092a.37.37 0 01-.12.061 1.629 1.629 0 01-.443.05c-.1 0-.19-.007-.262-.013a1.06 1.06 0 01-.192-.043.302.302 0 01-.113-.067.333.333 0 01-.054-.08l-3.243-8.635h-.006v8.598a.208.208 0 01-.03.104c-.018.031-.06.049-.107.068a1.048 1.048 0 01-.198.049 2.208 2.208 0 01-.31.019 2.06 2.06 0 01-.306-.019.941.941 0 01-.197-.049c-.048-.019-.084-.037-.102-.068a.288.288 0 01-.024-.104v-9.083c0-.209.054-.362.162-.454a.566.566 0 01.37-.135h.784c.162 0 .305.018.425.043.12.03.227.086.317.147s.162.154.227.252c.06.098.114.221.156.356l2.752 7.148h.036l2.86-7.123c.053-.154.113-.283.179-.387a.916.916 0 01.215-.258.788.788 0 01.257-.141c.096-.025.21-.037.335-.037h.826a.84.84 0 01.215.03.478.478 0 01.288.295c.03.074.047.16.047.264v9.083zm9.401-.349c0 .092 0 .172-.012.245a.533.533 0 01-.054.166.261.261 0 01-.09.105.171.171 0 01-.101.03h-4.613a.553.553 0 01-.323-.116c-.102-.08-.156-.222-.156-.418v-8.8c0-.203.054-.338.156-.418a.518.518 0 01.323-.123h4.559a.21.21 0 01.107.037c.036.019.06.055.078.098.018.05.036.105.048.172.012.068.024.154.024.252 0 .092-.012.178-.024.246a.797.797 0 01-.048.166.211.211 0 01-.078.098.204.204 0 01-.107.024h-3.757v3.096h3.224c.036 0 .072.018.108.036a.26.26 0 01.078.099.437.437 0 01.054.165 2.663 2.663 0 010 .492.457.457 0 01-.054.153.196.196 0 01-.078.092.223.223 0 01-.108.025h-3.224v3.531h3.81c.042 0 .078.012.102.031a.275.275 0 01.09.098.533.533 0 01.054.166c.012.067.012.153.012.252zm10.852-.006c0 .104-.018.19-.054.264a.415.415 0 01-.126.172.596.596 0 01-.383.129h-.424a1.22 1.22 0 01-.347-.043.696.696 0 01-.282-.148 1.63 1.63 0 01-.269-.301 3.978 3.978 0 01-.287-.491l-2.931-5.613a24.553 24.553 0 01-.897-1.836h-.019a67.79 67.79 0 01.03 2.26v5.957c0 .03-.006.067-.03.098a.245.245 0 01-.107.074.673.673 0 01-.198.049c-.078.012-.18.018-.305.018a2.17 2.17 0 01-.311-.018.629.629 0 01-.191-.049c-.048-.019-.084-.043-.102-.074a.159.159 0 01-.03-.098v-9.114c0-.196.054-.344.168-.43a.584.584 0 01.364-.135h.629c.15 0 .275.019.37.043a.774.774 0 01.276.129c.071.056.15.135.227.24.072.104.15.233.233.393l2.25 4.329c.143.264.275.528.407.78.125.252.25.498.37.743.12.246.24.485.36.719.113.233.233.473.346.712h.006a42.515 42.515 0 01-.018-1.259c-.006-.43-.006-.847-.006-1.246v-5.355c0-.037.012-.074.03-.105a.445.445 0 01.108-.08.75.75 0 01.197-.043c.078-.012.186-.018.317-.018.114 0 .216.006.3.018.083.006.15.025.191.043a.442.442 0 01.108.08c.018.031.03.068.03.105v9.101zm10.137-8.752c0 .092 0 .178-.012.251a.845.845 0 01-.048.172.207.207 0 01-.191.123h-2.704v8.561a.16.16 0 01-.03.104.16.16 0 01-.102.068 1.043 1.043 0 01-.197.049 2.187 2.187 0 01-.305.019c-.12 0-.222-.007-.305-.019a.922.922 0 01-.204-.049.157.157 0 01-.101-.068.207.207 0 01-.03-.104v-8.561h-2.704a.207.207 0 01-.108-.03.173.173 0 01-.078-.093.816.816 0 01-.054-.172 1.582 1.582 0 01-.018-.251c0-.099.006-.185.018-.258.018-.074.03-.129.054-.178.018-.043.042-.08.078-.099a.207.207 0 01.108-.03h6.682c.042 0 .078.012.108.03.036.019.06.056.083.099a.916.916 0 01.048.178c.012.073.012.159.012.258zM0 78.6h15.668l20.454 30.852V78.599h15.824v55.761H36.122l-20.34-30.619v30.619H0V78.6zm56.997 0h31.42c5.235 0 9.255 1.332 12.061 3.997 2.805 2.66 4.205 5.957 4.205 9.887 0 3.298-.999 6.123-2.997 8.481-1.334 1.572-3.29 2.819-5.863 3.728 3.907.964 6.778 2.616 8.621 4.962 1.837 2.352 2.758 5.293 2.758 8.843 0 2.892-.652 5.49-1.962 7.799a14.66 14.66 0 01-5.373 5.478c-1.412.835-3.535 1.449-6.371 1.824-3.78.51-6.293.761-7.526.761H56.997V78.6zm16.93 21.868h7.305c2.614 0 4.439-.461 5.462-1.388 1.023-.921 1.537-2.26 1.537-4.01 0-1.622-.514-2.893-1.537-3.808-1.023-.909-2.812-1.37-5.354-1.37h-7.413v10.576zm0 21.911h8.561c2.89 0 4.93-.528 6.114-1.578 1.185-1.05 1.783-2.469 1.783-4.244 0-1.645-.592-2.972-1.765-3.973-1.172-1.001-3.224-1.498-6.168-1.498h-8.525v11.293zm68.728-43.189h-27.89v28.63h27.89V79.19zm12.297 18.974h17.558v-18.03h-17.558v18.03zm-12.258-78.005h-44.42v45.604h44.42V20.159z" fill="#000"/><path d="M154.952 65.753H219V0h-64.048v65.753z" fill="#67A80E"/></svg>