<svg width="100" height="100" fill="none" xmlns="http://www.w3.org/2000/svg"><path d="M74.328 61.023c9.433-15.444 7.518-35.921-5.828-49.287-15.648-15.648-41.116-15.648-56.764 0-15.648 15.648-15.648 41.117 0 56.744 13.345 13.346 33.822 15.26 49.287 5.827L83.945 97.23c3.667 3.667 9.637 3.667 13.304 0 3.668-3.668 3.668-9.637 0-13.305L74.328 61.023zm-14.12-.815c-11.084 11.084-29.095 11.084-40.16 0-11.083-11.084-11.083-29.095 0-40.16 11.085-11.083 29.096-11.083 40.16 0 11.063 11.065 11.063 29.076 0 40.16zM44.825 35.024h12.102v9.23H44.826v12.103h-9.23V44.254H23.513v-9.23h12.102V22.922h9.23v12.102h-.02z" fill="#000" fill-opacity=".62"/></svg>