<svg width="98" height="97" fill="none" xmlns="http://www.w3.org/2000/svg"><path d="M17.833 90.828l2.966-9.141c.564-1.739-2.126-2.612-2.69-.873l-1.777 5.478-1.833-4.463c-.47-1.146-2.145-1.146-2.615 0l-1.833 4.463-1.778-5.478c-.563-1.738-3.253-.866-2.689.873l2.966 9.141c.394 1.216 2.164 1.288 2.652.1l1.99-4.842 1.989 4.843c.49 1.192 2.255 1.125 2.652-.101zm8.913.976a1.415 1.415 0 001.361-.876l1.99-4.842 1.989 4.843c.484 1.177 2.255 1.123 2.652-.101l2.966-9.142c.564-1.738-2.126-2.611-2.69-.872l-1.777 5.477-1.833-4.462c-.47-1.146-2.145-1.146-2.616 0l-1.833 4.462-1.777-5.477c-.564-1.739-3.253-.866-2.69.873l2.967 9.14c.183.565.699.955 1.29.977zm16.958 0a1.417 1.417 0 001.361-.876l1.99-4.842 1.989 4.843c.484 1.177 2.255 1.123 2.652-.101l2.966-9.142c.564-1.738-2.126-2.611-2.69-.872l-1.777 5.477-1.833-4.462c-.47-1.146-2.145-1.146-2.615 0l-1.834 4.462-1.777-5.477c-.564-1.739-3.253-.866-2.69.872l2.967 9.142c.183.564.698.954 1.29.976z" fill="#E9E9E9"/><path d="M96.258 78.318l-13.56-14.076c4.54-6.766 6.934-14.636 6.934-22.838a41.155 41.155 0 00-13.533-30.47c-1.355-1.225-3.252.872-1.896 2.098a38.293 38.293 0 019.565 13.466h-18.16C63.905 16.38 60.499 8.294 56.135 3.916a38.115 38.115 0 0111.372 4.26c1.587.908 2.99-1.547 1.403-2.454A41.107 41.107 0 0048.536.326c-10.978 0-21.298 4.273-29.06 12.031C11.714 20.116 7.44 30.432 7.44 41.404c0 12.788 5.849 24.635 15.82 32.395H5.471A4.874 4.874 0 00.6 78.668v13.294a4.874 4.874 0 004.87 4.869h5.684c1.828 0 1.828-2.827 0-2.827H5.471a2.044 2.044 0 01-2.042-2.042V78.668c0-1.126.916-2.042 2.042-2.042h52.628c1.125 0 2.041.916 2.041 2.042v13.294a2.044 2.044 0 01-2.041 2.042H18.688c-1.828 0-1.828 2.827 0 2.827h39.41a4.874 4.874 0 004.87-4.869V79.877a40.795 40.795 0 0010.635-5.922l.032 13.511c.006 2.828 3.713 4.063 5.416 1.81l5.454-7.217a.184.184 0 01.178-.071l8.94 1.396c2.749.428 4.598-3.029 2.635-5.066zm-11.42-48.993a38.17 38.17 0 011.967 12.08c0 4.156-.662 8.22-1.945 12.078H66.02c.514-3.855.786-7.917.786-12.079 0-4.221-.27-8.274-.773-12.08h18.804zM56.595 73.799h-16.12c-2.793-4.316-4.904-10.425-6.138-17.489h28.397c-1.235 7.064-3.345 13.173-6.138 17.49zm-22.7-20.316a89.289 89.289 0 01-.803-12.079c0-4.169.275-8.233.805-12.08h29.277a88.88 88.88 0 01.805 12.08c0 4.178-.277 8.245-.803 12.08H33.895zM10.266 41.404c0-4.22.689-8.28 1.957-12.08h18.815a92.392 92.392 0 00-.773 12.08c0 4.161.272 8.224.785 12.08H12.21a38.359 38.359 0 01-1.944-12.08zM59.155 13.91c1.555 3.66 2.761 7.93 3.578 12.588H34.338c.817-4.657 2.023-8.928 3.579-12.588 2.905-6.836 6.775-10.757 10.619-10.757 3.843 0 7.713 3.92 10.618 10.757zM40.94 3.911c-4.367 4.378-7.773 12.466-9.477 22.587h-18.17C18.16 15.044 28.458 6.433 40.94 3.91zm-12.982 69.75C21.287 69.4 16.238 63.33 13.274 56.31h18.2c1.16 6.854 3.113 12.91 5.7 17.488h-9.036a1.434 1.434 0 00-.18-.138zm34.701 3.303a4.893 4.893 0 00-2.922-2.88c2.667-4.61 4.677-10.777 5.86-17.773h18.196a38.103 38.103 0 01-3.105 5.845l-1.928-2.001c-1.818-1.888-5.19-.559-5.183 2.096l.018 8.062a38.082 38.082 0 01-10.936 6.651zm31.594 3.529c-.062.118-.145.105-.194.097l-8.94-1.396a3.008 3.008 0 00-2.869 1.16l-5.454 7.217c-.165.122-.276.085-.334-.111l-.058-25.215c.048-.187.155-.23.32-.129L94.221 80.28c.034.035.092.095.03.213z" fill="#E9E9E9"/></svg>