<svg width="97" height="97" fill="none" xmlns="http://www.w3.org/2000/svg"><path d="M11.105 35.476a1.408 1.408 0 001.997 0 1.412 1.412 0 000-1.997l-3.429-3.428 3.429-3.428a1.412 1.412 0 00-1.997-1.997L6.68 29.053a1.412 1.412 0 000 1.996l4.426 4.427zM25.12 30.05l-3.43 3.43a1.411 1.411 0 101.998 1.996l4.427-4.427a1.411 1.411 0 000-1.996l-4.427-4.428a1.411 1.411 0 10-1.996 1.997l3.427 3.429zm-9.828 5.742a1.413 1.413 0 001.83-.798L20.6 26.14a1.412 1.412 0 10-2.627-1.032l-3.479 8.853a1.412 1.412 0 00.798 1.83zm-6.811 8.381h9.512a1.412 1.412 0 000-2.824H8.481a1.411 1.411 0 100 2.824zM39.9 41.349H23.177a1.412 1.412 0 000 2.824H39.9a1.412 1.412 0 100-2.824zM8.481 50.128h4.052a1.412 1.412 0 000-2.824H8.481a1.412 1.412 0 100 2.824zm26.249-2.824a1.412 1.412 0 100 2.824h2.467a1.412 1.412 0 100-2.824H34.73zm-3.717 1.412c0-.78-.633-1.412-1.412-1.412H17.48a1.412 1.412 0 100 2.824H29.6c.78 0 1.412-.632 1.412-1.412zm9.26 0c0 .78.632 1.412 1.411 1.412h4.622a1.412 1.412 0 100-2.824h-4.622c-.78 0-1.411.633-1.411 1.412zm-7.698-17.533h4.875a1.412 1.412 0 100-2.824h-4.875a1.412 1.412 0 100 2.824zm10.338 0h29.744a1.412 1.412 0 100-2.824H42.913a1.412 1.412 0 100 2.824zm25.231 3.388H56.095a1.412 1.412 0 000 2.825h12.049a1.412 1.412 0 000-2.825zm-16.568 0h-4.142a1.412 1.412 0 100 2.825h4.142a1.412 1.412 0 100-2.825zm-19.001 2.825H42.72a1.412 1.412 0 000-2.825H32.575a1.412 1.412 0 100 2.825zM29.624 53.21h-9.51a1.412 1.412 0 100 2.823h9.51a1.412 1.412 0 000-2.824zm-13.835 0H8.48a1.411 1.411 0 100 2.823h7.308a1.412 1.412 0 100-2.824zm31.071 0H34.433a1.411 1.411 0 100 2.823H46.86a1.412 1.412 0 000-2.824zm16.804-7.254H56.87a1.412 1.412 0 000 2.825h6.794a1.412 1.412 0 100-2.825zm11.794 2.824h9.591a1.412 1.412 0 100-2.824h-9.591a1.412 1.412 0 100 2.825zm-4.799-2.824H68.46a1.412 1.412 0 100 2.825h2.198a1.412 1.412 0 100-2.825zM56.87 64.167h6.794a1.411 1.411 0 100-2.824H56.87a1.412 1.412 0 000 2.824zm18.588 0h9.591a1.412 1.412 0 100-2.824h-9.591a1.412 1.412 0 100 2.824zm-6.998 0h2.199a1.412 1.412 0 100-2.824H68.46a1.411 1.411 0 100 2.824zM63.664 76.73H56.87a1.412 1.412 0 000 2.823h6.794a1.411 1.411 0 100-2.823zm21.386 0h-9.592a1.412 1.412 0 100 2.823h9.591a1.412 1.412 0 100-2.823zm-14.391 0H68.46a1.412 1.412 0 100 2.823h2.198a1.411 1.411 0 100-2.823z" fill="#fff"/><path d="M90.26.326H6.214A6.221 6.221 0 000 6.54v68.317a6.221 6.221 0 006.214 6.213h5.314a1.411 1.411 0 100-2.823H6.214c-1.87 0-3.39-1.52-3.39-3.39V69.5h51.44v2.433h-1.12a2.78 2.78 0 00-2.777 2.777v3.536H20.112a1.412 1.412 0 000 2.823h13.576v5.065h-4.264a5.163 5.163 0 00-5.157 5.157v3.05a2.356 2.356 0 002.353 2.353h43.126a2.356 2.356 0 002.353-2.353v-3.05a5.163 5.163 0 00-5.157-5.157h-4.263V84.35H88.78a2.78 2.78 0 002.776-2.777v-.665c2.752-.639 4.81-3.108 4.81-6.051l.106-68.317A6.22 6.22 0 0090.26.326zM53.191 66.139v-6.767h35.543v6.767H53.19zm3.896-9.592v-2.97h27.75v2.97h-27.75zm27.75 12.416v2.971h-27.75v-2.971h27.75zM36.511 81.07h13.856v.502a2.78 2.78 0 002.777 2.777h6.711v1.785H36.511V81.07zm30.431 7.888a2.336 2.336 0 012.334 2.333v2.58H27.09v-2.58a2.337 2.337 0 012.333-2.333h37.519zm21.792-7.434H53.19v-6.767h35.543v6.767zm4.809-6.668a3.39 3.39 0 01-1.985 3.081V74.71a2.78 2.78 0 00-2.777-2.776h-1.12v-2.433h5.882v5.356zm0-8.18H91.51c.029-.16.047-7.353.047-7.353a2.78 2.78 0 00-2.777-2.777h-1.12v-2.97h1.12a2.78 2.78 0 002.777-2.777v-6.862a2.78 2.78 0 00-2.777-2.778h-7.975a1.412 1.412 0 100 2.825h7.928v6.767H53.19v-6.767h18.83a1.411 1.411 0 100-2.825H53.143a2.78 2.78 0 00-2.777 2.778V50.8a2.78 2.78 0 002.777 2.777h1.12v2.97h-1.12a2.78 2.78 0 00-2.777 2.777s.018 7.194.046 7.353H2.824V19.532h90.719v47.145zm0-49.97H2.928V6.54c0-1.87 1.52-3.39 3.39-3.39h83.835c1.87 0 3.39 1.52 3.39 3.39v10.168z" fill="#fff"/><path d="M10.408 5.745a4.148 4.148 0 00-4.143 4.143 4.148 4.148 0 004.143 4.144 4.149 4.149 0 004.144-4.144 4.148 4.148 0 00-4.144-4.143zm0 5.463c-.727 0-1.32-.592-1.32-1.32 0-.727.593-1.32 1.32-1.32a1.32 1.32 0 010 2.64zM20.96 5.745a4.148 4.148 0 00-4.143 4.143 4.149 4.149 0 004.144 4.144 4.148 4.148 0 004.143-4.144 4.148 4.148 0 00-4.143-4.143zm0 5.463a1.32 1.32 0 010-2.64c.728 0 1.32.593 1.32 1.32 0 .728-.592 1.32-1.32 1.32zm10.552-5.463a4.148 4.148 0 00-4.144 4.143 4.148 4.148 0 004.144 4.144 4.149 4.149 0 004.143-4.144 4.148 4.148 0 00-4.143-4.143zm0 5.463c-.728 0-1.32-.592-1.32-1.32 0-.727.592-1.32 1.32-1.32a1.32 1.32 0 010 2.64z" fill="#fff"/></svg>