<svg width="88" height="113" fill="none" xmlns="http://www.w3.org/2000/svg"><path d="M86.207 66.996h-10.64V54.22a5.158 5.158 0 003.509-4.88v-3.51c0-.906-.735-1.641-1.642-1.641h-7.018c-.906 0-1.641.735-1.641 1.642v3.509a5.158 5.158 0 003.509 4.88v12.777h-5.49V1.967c0-.906-.735-1.641-1.641-1.641H23.045c-.907 0-1.642.735-1.642 1.641v33.545a8.467 8.467 0 00-3.343-1.618c-2.64-.606-5.345-.005-7.423 1.65a8.62 8.62 0 00-3.27 6.777 8.6 8.6 0 00.494 2.876c.182.514.109 1.083-.192 1.485-1.792 2.4-2.444 5.358-1.834 8.328.818 3.98 4.028 7.205 7.988 8.024.187.039.375.072.563.1v3.863H1.99a1.642 1.642 0 000 3.283H24.8a1.642 1.642 0 000-3.283h-.112v-5.49h3.621a1.642 1.642 0 000-3.283h-3.361a10.35 10.35 0 001.363-3.735h1.998a1.641 1.641 0 100-3.283H26.31a10.206 10.206 0 00-1.391-3.735h15.67a1.642 1.642 0 000-3.282H24.688v-3.735h3.621a1.642 1.642 0 000-3.283h-3.621v-3.735h3.621a1.641 1.641 0 100-3.283h-3.621v-3.735H40.59a1.642 1.642 0 000-3.283H24.687v-3.736h3.621a1.642 1.642 0 000-3.283h-3.621v-3.734h3.621a1.642 1.642 0 000-3.284h-3.621V3.61H63.51V9.1H47.608a1.642 1.642 0 000 3.283H63.51v3.734H47.608a1.641 1.641 0 100 3.283H63.51v3.735h-3.62a1.642 1.642 0 000 3.283h3.622v3.735H47.608a1.642 1.642 0 000 3.283H63.51v3.735H47.608a1.641 1.641 0 100 3.283H63.51v3.735h-3.62a1.642 1.642 0 000 3.283h3.622v3.735H47.608a1.642 1.642 0 000 3.283H63.51v3.735H47.608a1.641 1.641 0 100 3.283H63.51v5.489H31.818a1.642 1.642 0 100 3.283h.112v10.753h-9.267a5.159 5.159 0 00-4.881-3.51c-2.84 0-5.151 2.311-5.151 5.151s2.31 5.151 5.15 5.151a5.159 5.159 0 004.882-3.51h9.267v7.515a5.158 5.158 0 00-3.508 4.88c0 2.84 2.31 5.151 5.15 5.151 2.84 0 5.15-2.31 5.15-5.15a5.159 5.159 0 00-3.508-4.881V70.28h7.244v32.076a5.159 5.159 0 00-3.51 4.881c0 2.84 2.31 5.151 5.151 5.151 2.84 0 5.15-2.311 5.15-5.15a5.158 5.158 0 00-3.509-4.881V70.279h7.244v21.55a5.158 5.158 0 00-3.509 4.88 5.156 5.156 0 005.15 5.151c2.84 0 5.151-2.31 5.151-5.15a5.159 5.159 0 00-3.509-4.88v-7.515h9.268a5.159 5.159 0 004.881 3.51c2.84 0 5.15-2.311 5.15-5.151s-2.31-5.15-5.15-5.15a5.158 5.158 0 00-4.88 3.508h-9.269V70.28h29.94a1.641 1.641 0 100-3.283zm-64.803 0h-3.735v-3.87a10.373 10.373 0 003.735-1.36v5.23zm-.878-8.616a7.057 7.057 0 01-2.857 1.413v-3.437a1.641 1.641 0 10-3.284 0v3.438c-2.646-.591-4.783-2.765-5.334-5.445-.418-2.038.025-4.063 1.25-5.702.961-1.289 1.206-2.988.654-4.546a5.315 5.315 0 01-.304-1.78c0-1.648.74-3.182 2.03-4.21a5.296 5.296 0 013.335-1.168c.43 0 .868.05 1.308.15a5.278 5.278 0 013.892 3.785c.278 1.075.249 2.13-.086 3.133-.548 1.64-.312 3.377.632 4.646a6.975 6.975 0 011.396 4.19c0 2.154-.96 4.17-2.632 5.533zm-2.744 26.161a1.87 1.87 0 01-1.868-1.867 1.87 1.87 0 011.868-1.868 1.87 1.87 0 011.867 1.868 1.87 1.87 0 01-1.867 1.867zM35.439 96.71a1.87 1.87 0 01-1.867 1.867 1.87 1.87 0 01-1.868-1.867 1.87 1.87 0 011.868-1.868 1.87 1.87 0 011.867 1.868zm10.527 10.527a1.87 1.87 0 01-1.867 1.867 1.87 1.87 0 01-1.867-1.867 1.87 1.87 0 011.867-1.868 1.87 1.87 0 011.867 1.868zM56.493 96.71a1.87 1.87 0 01-1.867 1.867 1.87 1.87 0 01-1.867-1.867 1.87 1.87 0 011.867-1.868 1.87 1.87 0 011.867 1.868zm13.923-15.904a1.87 1.87 0 011.868 1.868 1.87 1.87 0 01-1.868 1.867 1.87 1.87 0 01-1.867-1.867 1.87 1.87 0 011.867-1.868zm3.51-29.6a1.87 1.87 0 01-1.868-1.867V47.47h3.735v1.868a1.87 1.87 0 01-1.868 1.867z" fill="#fff"/></svg>