<svg width="170" height="170" fill="none" xmlns="http://www.w3.org/2000/svg"><path d="M1.263 26.78C1.263 11.857 13.467-.213 28.438.002c14.5.208 26.292 12.102 26.384 26.605.051 8.121-3.514 15.41-9.179 20.355a1.163 1.163 0 00.171 1.878l5.046 2.985c.816.483.474 1.733-.474 1.733l-22.85-.005C12.98 53.283 1.263 41.4 1.263 26.78z" fill="#67A80E"/><path d="M50.86 51.825l-5.046-2.985a1.16 1.16 0 01-.179-1.872c5.73-4.996 9.314-12.392 9.184-20.621C54.594 12.11 43.073.427 28.842.012a26.987 26.987 0 00-5.886.47c12.3 2.359 21.675 13.201 21.757 26.124a26.663 26.663 0 01-5.63 16.6c-2.15 2.765-1.452 6.773 1.562 8.557l.106.062c.807.478.48 1.704-.445 1.73l10.08.003c.947 0 1.29-1.25.474-1.733z" fill="#2F7356"/><path d="M131.747 97.204h-60.75c-15.173 0-23.477-17.683-13.786-29.358l.54-.65a28.657 28.657 0 006.605-18.302V37.179C64.356 16.645 81.002 0 101.535 0c20.534 0 37.179 16.645 37.179 37.179v12.11a28.656 28.656 0 006.737 18.459c9.812 11.652 1.529 29.456-13.704 29.456z" fill="#C59191"/><path d="M163.682 127.311v40.162H39.064v-39.86a22.425 22.425 0 0113.723-20.669l20.117-8.746 6.774-2.945a14.075 14.075 0 008.463-12.91v-2.599h26.46v2.467a14.077 14.077 0 008.533 12.936l27.21 11.664a22.422 22.422 0 0113.338 20.5z" fill="#fff"/><path d="M72.903 107.774a96.437 96.437 0 0029.291 4.024 96.434 96.434 0 0027.648-4.558l3.281-7.811-9.99-4.282a14.075 14.075 0 01-8.53-12.937v-2.465h-26.46v2.599a14.076 14.076 0 01-8.463 12.908l-8.091 3.518 1.314 9.004z" fill="#FFCEBF"/><path d="M150.343 106.809l-20.497-8.785h-.004v69.448h33.84v-40.161a22.425 22.425 0 00-13.339-20.502zm-77.439-8.611v69.275h-33.84v-39.86a22.425 22.425 0 0113.722-20.669l20.118-8.746z" fill="#67A80E"/><path d="M110.544 94.267c3.045 0 5.945-.61 8.589-1.714a14.075 14.075 0 01-4.531-10.343v-2.465h-26.46v2.599a14.04 14.04 0 01-1.232 5.754 22.245 22.245 0 0015.399 6.17h8.235z" fill="#FFB09E"/><path d="M127.818 39.941v21.89c0 12.331-9.997 22.328-22.328 22.328h-8.235c-12.332 0-22.328-9.997-22.328-22.329V39.941c0-8.022 6.503-14.526 14.525-14.526h23.84c8.022 0 14.526 6.504 14.526 14.526z" fill="#FFCEBF"/><path d="M127.817 51.33c-.01.03-.022.059-.031.09-.807 2.787-2.925 8.053-8.045 12-2.383 1.839-5.102 3.167-8.08 3.948a2.528 2.528 0 101.283 4.89c3.636-.955 6.962-2.581 9.884-4.835a27.069 27.069 0 004.975-5.004c.005-.196.015-.391.015-.588V51.33h-.001z" fill="#7A6D79"/><path d="M108.889 74.355h-5.922a4.881 4.881 0 110-9.763h5.922a4.882 4.882 0 110 9.763z" fill="#685E68"/><path d="M106.649 19.622c.567-7.152 7.414-11.898 13.967-14.357 10.841 6.496 18.098 18.356 18.098 31.914v2.555c-.599.126-1.195.237-1.785.325-3.61.539-6.684.305-8.785 0-13.534-1.803-22.18-11.8-21.495-20.437z" fill="#B98080"/><path d="M101.535 0a37.01 37.01 0 0122.366 7.479c-3.104 5.403-10.234 16.084-23.602 23.992-9.925 5.87-19.283 7.843-25.046 8.588H64.358v-2.88C64.357 16.645 81.002 0 101.535 0z" fill="#C59191"/><path d="M143.096 167.473h-80.9l-4.463-42.094a5.055 5.055 0 015.026-5.587h79.773a5.056 5.056 0 015.027 5.587l-4.463 42.094z" fill="#C7C7C7"/><path d="M142.531 119.792h-10.109a5.055 5.055 0 015.027 5.587l-4.463 42.094h10.11l4.462-42.094a5.055 5.055 0 00-5.027-5.587z" fill="#444"/><path d="M167.51 170H2.49a2.49 2.49 0 110-4.98h165.02a2.49 2.49 0 110 4.98z" fill="#C9BFC8"/><path d="M17.935 29.306a2.527 2.527 0 100-5.054 2.527 2.527 0 000 5.054zm10.109 0a2.527 2.527 0 100-5.054 2.527 2.527 0 000 5.054zm10.109 0a2.527 2.527 0 100-5.054 2.527 2.527 0 000 5.054z" fill="#fff"/></svg>