<svg width="92" height="92" fill="none" xmlns="http://www.w3.org/2000/svg"><path d="M91.777 75.095a7 7 0 00-3.472-5.186l-22.509-12.96a7.063 7.063 0 00-8.504 1.125l-4.434 4.433a3.25 3.25 0 01-4.34.243 128.159 128.159 0 01-10.229-9.2 128.166 128.166 0 01-9.2-10.228 3.249 3.249 0 01.243-4.34l4.434-4.434a7.062 7.062 0 001.125-8.505L21.93 3.536A7 7 0 0016.745.063a6.998 6.998 0 00-5.91 2.004l-6.681 6.68C-.51 13.41-.584 21.94 3.943 32.765 8.295 43.173 16.418 54.63 26.814 65.027c10.397 10.396 21.854 18.519 32.262 22.871 5.328 2.228 10.1 3.342 14.129 3.341 4.155 0 7.52-1.184 9.887-3.552l6.68-6.68a7.002 7.002 0 002.005-5.911zM64.322 59.51L86.83 72.47a4.065 4.065 0 012.017 3.011 4.06 4.06 0 01-.766 2.97L58.167 61.378l1.215-1.215a4.103 4.103 0 014.94-.653zM16.357 2.993A4.065 4.065 0 0119.37 5.01l12.96 22.509a4.102 4.102 0 01-.653 4.939l-1.116 1.116L13.394 3.759a4.046 4.046 0 012.963-.766zm64.645 82.603c-3.704 3.704-11.28 3.549-20.785-.426-10.062-4.208-21.182-12.104-31.313-22.234C18.774 52.805 10.877 41.685 6.67 31.623c-3.975-9.505-4.13-17.081-.426-20.786l4.96-4.959 17.191 29.86-1.153 1.153a6.2 6.2 0 00-.455 8.284 131.13 131.13 0 009.412 10.466 131.22 131.22 0 0010.465 9.412 6.2 6.2 0 008.285-.456L56 63.546l29.955 17.096-4.954 4.954z" fill="#fff"/></svg>