<svg width="96" height="97" fill="none" xmlns="http://www.w3.org/2000/svg"><path d="M89.796 35.193a24.742 24.742 0 00-13.6-8.158A28.436 28.436 0 0067.711 8.46C62.375 3.215 55.326.326 47.862.326c-6.275 0-12.223 2.017-17.2 5.833-1.44 1.103.267 3.329 1.706 2.226A25.256 25.256 0 0147.862 3.13c6.724 0 13.075 2.603 17.883 7.33 4.802 4.72 7.535 11.034 7.697 17.777a1.402 1.402 0 001.17 1.35c5.06.845 9.693 3.48 13.048 7.423a22.133 22.133 0 015.26 14.334c0 12.162-9.835 22.057-21.925 22.057H58.623V60.948h9.46c1.169 0 1.825-1.41 1.073-2.304l-20.22-24.055c-.716-.667-1.431-.667-2.147 0L26.57 58.643c-.752.895-.096 2.305 1.073 2.305h9.46V73.4H24.73c-12.09 0-21.926-9.894-21.926-22.056A22.133 22.133 0 018.065 37.01c3.355-3.942 7.989-6.579 13.048-7.423a1.402 1.402 0 001.17-1.35 25.642 25.642 0 015.105-14.806c1.084-1.453-1.163-3.13-2.248-1.678a28.408 28.408 0 00-5.61 15.282 24.74 24.74 0 00-13.6 8.157A24.94 24.94 0 000 51.344c0 13.708 11.094 24.861 24.73 24.861h12.372V94.65c0 .774.627 1.402 1.402 1.402H57.22c.775 0 1.403-.628 1.403-1.402v-6.122c0-1.813-2.805-1.813-2.805 0v4.72H39.906V59.545c0-.775-.628-1.403-1.402-1.403h-7.85L47.861 37.67l17.21 20.473h-7.85c-.775 0-1.403.628-1.403 1.403v21.593c0 1.813 2.804 1.813 2.804 0v-4.934h12.373c13.636 0 24.73-11.153 24.73-24.862a24.942 24.942 0 00-5.93-16.15z" fill="#fff"/></svg>