<svg width="87" height="87" fill="none" xmlns="http://www.w3.org/2000/svg"><path d="M86.717 25.83c.018-2.457-2.368-4.463-4.792-4.007l-8.703 1.615c-4.08.763-4.37 6.737-.353 7.872l-5.677 6.874-28.237-36.52c-1.614-2.089-4.966-2.022-6.5.12L15.143 25.993c-.948 1.325 1.102 2.791 2.05 1.466L34.506 3.25c.568-.794 1.858-.818 2.456-.045l29.2 37.768c.647.642 1.303.652 1.97.031L76.6 30.75c.73-.884-.061-2.246-1.192-2.043l-1.161.206c-1.94.36-2.506-2.632-.564-2.996l8.704-1.615c.913-.173 1.816.597 1.809 1.52l.001 8.867c.012 1.951-2.96 1.885-3.057-.005v-1.052c0-1.155-1.492-1.694-2.23-.805L68.268 45.635c-.596.72-1.82.7-2.39-.039L36.834 8.034c-.687-.665-1.36-.653-2.022.037L6.007 48.347c-1.08 1.51-3.604-.21-2.49-1.77l9.787-13.683c.948-1.325-1.102-2.79-2.05-1.466L1.468 45.112c-2.968 4.149 3.591 8.892 6.589 4.702l27.82-38.899 28.006 36.223c1.53 1.978 4.728 2.04 6.325.104l8.885-10.692c1.876 3.618 7.65 2.218 7.625-1.87l-.001-8.85z" fill="#fff"/><path d="M75.987 52.871c-3.084-.99-6.293.074-8.177 2.708a7.284 7.284 0 00-1.124 2.39c-2.687-2.501-7.047-2.64-9.816-.2v-8.785c0-6.194-7.432-9.522-12.096-5.541V31.382c0-9.38-14.617-9.48-14.617 0v9.46c-4.68-3.978-12.096-.641-12.096 5.548v11.365c-4.68-3.978-12.097-.64-12.097 5.548v21.573c0 .696.564 1.26 1.26 1.26h72.578a1.26 1.26 0 001.26-1.26V59.83c0-3.238-1.992-5.97-5.075-6.959zm-27.973-8.419c3.045-1.039 6.336 1.296 6.336 4.532v34.632h-9.577v-34.64c.004-2.52 1.676-3.99 3.241-4.523zM8.484 63.303c0-6.234 9.577-6.216 9.577 0v20.313H8.484V63.303zM20.581 46.39c0-6.234 9.576-6.217 9.576 0v37.226H20.58V46.39zm12.096-15.008c0-6.234 9.576-6.216 9.576 0v52.234h-9.576V31.382zm45.866 52.234h-9.577v-4.708c0-1.629-2.52-1.629-2.52 0v4.708H56.87V63.303c0-6.147 9.568-6.226 9.576-.008v8.903c0 1.63 2.52 1.63 2.52 0V59.83a4.76 4.76 0 01.894-2.785c1.498-2.095 3.75-2.29 5.357-1.774 1.608.515 3.326 1.984 3.326 4.56v23.785z" fill="#fff"/></svg>