<svg width="92" height="83" fill="none" xmlns="http://www.w3.org/2000/svg"><path d="M87.23 29.727a4.622 4.622 0 00-4.616 4.616v.28l-11.084 6.09v-1.254c0-3.066-1.991-5.673-4.747-6.603 5.263-3.022 8.817-8.705 8.817-15.205C75.6 7.993 67.756.136 58.114.136c-7.273 0-13.522 4.471-16.154 10.813C39.328 4.607 33.08.136 25.806.136a17.38 17.38 0 00-6.33 1.185 1.337 1.337 0 00.97 2.49 14.722 14.722 0 015.36-1.002c8.168 0 14.813 6.658 14.813 14.841 0 8.184-6.645 14.841-14.813 14.841-8.167 0-14.812-6.657-14.812-14.84a14.79 14.79 0 014.108-10.259 1.336 1.336 0 10-1.933-1.846A17.449 17.449 0 008.32 17.65c0 6.5 3.553 12.184 8.816 15.206-2.756.93-4.747 3.537-4.747 6.602v2.006H9.843v-.082a4.622 4.622 0 00-4.617-4.616 4.622 4.622 0 00-4.617 4.617v11.853a4.622 4.622 0 004.617 4.616 4.622 4.622 0 004.617-4.616v-.082h2.547v22.827a6.975 6.975 0 006.967 6.968h45.206a6.975 6.975 0 006.967-6.968V71.54a1.336 1.336 0 10-2.673 0v4.442a4.299 4.299 0 01-4.294 4.295H19.357a4.3 4.3 0 01-4.294-4.295V39.46a4.3 4.3 0 014.294-4.294h45.206a4.299 4.299 0 014.294 4.294v24.954a1.336 1.336 0 102.673 0v-5.8L82.614 64.7v.28a4.622 4.622 0 004.617 4.617 4.622 4.622 0 004.616-4.617V34.343a4.622 4.622 0 00-4.616-4.616zM7.17 53.236a1.946 1.946 0 01-1.944 1.943 1.946 1.946 0 01-1.944-1.943V41.383c0-1.072.872-1.944 1.944-1.944s1.944.872 1.944 1.944v11.853zm2.673-2.755v-6.344h2.547v6.344H9.843zM58.113 2.81c8.169 0 14.814 6.658 14.814 14.841s-6.645 14.84-14.813 14.84c-8.168 0-14.813-6.657-14.813-14.84 0-8.184 6.645-14.841 14.813-14.841zM35.08 32.492a17.612 17.612 0 006.88-8.14 17.614 17.614 0 006.88 8.14H35.08zm36.45 23.07v-11.8l11.084-6.089v23.978L71.53 55.563zm17.644 9.42a1.946 1.946 0 01-1.943 1.943 1.946 1.946 0 01-1.944-1.944V34.343c0-1.071.872-1.943 1.944-1.943 1.071 0 1.943.872 1.943 1.943v30.638z" fill="#fff"/><path d="M18.296 72.106a5.183 5.183 0 005.174 5.18 5.183 5.183 0 005.174-5.18 5.182 5.182 0 00-5.174-5.18 5.183 5.183 0 00-5.174 5.18zm7.675 0a2.507 2.507 0 01-2.501 2.507 2.507 2.507 0 01-2.5-2.507 2.507 2.507 0 012.5-2.508c1.379 0 2.5 1.125 2.5 2.508zm4.199 0c0 2.856 2.32 5.18 5.174 5.18a5.183 5.183 0 005.173-5.18c0-2.857-2.32-5.18-5.173-5.18a5.183 5.183 0 00-5.174 5.18zm7.674 0a2.507 2.507 0 01-2.5 2.507 2.507 2.507 0 010-5.015c1.378 0 2.5 1.125 2.5 2.508zM25.8 29.53c6.54 0 11.86-5.33 11.86-11.88 0-6.55-5.32-11.878-11.86-11.878-6.54 0-11.86 5.329-11.86 11.879s5.32 11.878 11.86 11.878zm0-21.085c5.066 0 9.187 4.13 9.187 9.206s-4.122 9.205-9.187 9.205c-5.066 0-9.188-4.13-9.188-9.205 0-5.076 4.122-9.206 9.188-9.206zM58.12 29.53c6.539 0 11.86-5.33 11.86-11.88 0-6.55-5.32-11.878-11.86-11.878-6.54 0-11.86 5.329-11.86 11.879s5.32 11.878 11.86 11.878zm0-21.085c5.065 0 9.186 4.13 9.186 9.206s-4.12 9.205-9.187 9.205c-5.066 0-9.187-4.13-9.187-9.205 0-5.076 4.122-9.206 9.187-9.206z" fill="#fff"/><path d="M22.774 20.694c.63.522 1.26.521 1.89-.001l1.148-1.15 1.148 1.15c.63.522 1.26.523 1.89.001a1.336 1.336 0 00.002-1.89L27.7 17.651l1.152-1.154a1.336 1.336 0 10-1.892-1.888l-1.148 1.15-1.148-1.15a1.337 1.337 0 00-1.892 1.888l1.151 1.154-1.15 1.153a1.336 1.336 0 000 1.89zm32.3 0c.63.522 1.26.521 1.89-.001l1.148-1.15 1.148 1.15c.63.522 1.26.523 1.89.001a1.337 1.337 0 00.002-1.89L60 17.651l1.152-1.154a1.337 1.337 0 00-1.892-1.888l-1.148 1.15-1.148-1.15a1.337 1.337 0 00-1.892 1.888l1.151 1.154-1.15 1.153a1.337 1.337 0 000 1.89z" fill="#fff"/></svg>