<svg width="219" height="152" viewBox="0 0 219 152" fill="none" xmlns="http://www.w3.org/2000/svg">
<path d="M7.70888 146.782C7.70888 147.635 7.60719 148.378 7.39182 149.017C7.18244 149.656 6.87135 150.184 6.45856 150.602C6.05176 151.025 5.54922 151.339 4.95696 151.547C4.3647 151.756 3.65279 151.861 2.8332 151.861H0.793158C0.685473 151.861 0.571826 151.818 0.476106 151.738C0.374405 151.658 0.320557 151.523 0.320557 151.326V142.526C0.320557 142.329 0.374405 142.188 0.476106 142.108C0.571826 142.029 0.685473 141.992 0.793158 141.992H2.97078C3.80832 141.992 4.50829 142.102 5.0826 142.323C5.65692 142.544 6.14148 142.864 6.52436 143.275C6.9192 143.687 7.21233 144.19 7.40975 144.786C7.61316 145.369 7.70888 146.039 7.70888 146.782V146.782ZM6.36881 146.831C6.36881 146.303 6.30303 145.799 6.17142 145.339C6.04578 144.884 5.84238 144.485 5.57317 144.147C5.292 143.816 4.94501 143.552 4.52624 143.361C4.10747 143.177 3.56305 143.079 2.89899 143.079H1.60081V150.761H2.91097C3.52716 150.761 4.04762 150.681 4.46639 150.522C4.88517 150.368 5.23814 150.123 5.51931 149.803C5.80049 149.478 6.01586 149.066 6.15944 148.575C6.29704 148.084 6.36881 147.5 6.36881 146.831V146.831Z" fill="black"/>
<path d="M16.5731 151.315C16.5731 151.407 16.5671 151.487 16.5611 151.56C16.5491 151.628 16.5312 151.683 16.5073 151.726C16.4833 151.775 16.4534 151.806 16.4175 151.831C16.3876 151.849 16.3517 151.861 16.3158 151.861H11.7033C11.5897 151.861 11.482 151.818 11.3803 151.745C11.2726 151.665 11.2247 151.523 11.2247 151.327V142.527C11.2247 142.324 11.2726 142.189 11.3803 142.109C11.482 142.029 11.5897 141.986 11.7033 141.986H16.262C16.3038 141.986 16.3397 142.005 16.3696 142.023C16.3995 142.042 16.4295 142.078 16.4474 142.121C16.4654 142.171 16.4833 142.226 16.4953 142.293C16.5072 142.361 16.5192 142.447 16.5192 142.545C16.5192 142.637 16.5072 142.723 16.4953 142.791C16.4833 142.858 16.4654 142.914 16.4474 142.957C16.4295 143 16.3995 143.03 16.3696 143.055C16.3397 143.073 16.3038 143.079 16.262 143.079H12.499V146.175H15.7295C15.7654 146.175 15.8013 146.193 15.8312 146.211C15.8671 146.236 15.8971 146.267 15.915 146.31C15.9389 146.346 15.9568 146.402 15.9628 146.475C15.9748 146.549 15.9808 146.629 15.9808 146.727C15.9808 146.819 15.9748 146.899 15.9628 146.967C15.9568 147.028 15.9389 147.083 15.915 147.12C15.8971 147.163 15.8671 147.194 15.8312 147.212C15.8013 147.231 15.7654 147.237 15.7295 147.237H12.499V150.768H16.3158C16.3517 150.768 16.3876 150.78 16.4175 150.799C16.4534 150.823 16.4833 150.854 16.5073 150.897C16.5312 150.94 16.5491 150.995 16.5611 151.063C16.5671 151.13 16.5731 151.216 16.5731 151.315V151.315Z" fill="black"/>
<path d="M24.047 151.618C24.0231 151.673 23.9931 151.723 23.9632 151.759C23.9273 151.796 23.8795 151.821 23.8197 151.839C23.7598 151.864 23.6761 151.876 23.5803 151.888C23.4846 151.888 23.365 151.895 23.2214 151.895C23.1137 151.895 23.018 151.895 22.9342 151.888C22.8505 151.888 22.7787 151.882 22.7249 151.876C22.659 151.864 22.6112 151.852 22.5693 151.839C22.5274 151.827 22.4915 151.809 22.4616 151.79C22.4317 151.772 22.4078 151.747 22.3898 151.716C22.3779 151.686 22.3599 151.655 22.342 151.612L19.2012 142.45C19.1593 142.333 19.1414 142.247 19.1354 142.179C19.1354 142.106 19.1593 142.056 19.2012 142.02C19.2431 141.983 19.3208 141.964 19.4165 141.952C19.5182 141.94 19.6499 141.934 19.8174 141.934C19.955 141.934 20.0686 141.94 20.1464 141.946C20.2302 141.958 20.296 141.97 20.3379 141.989C20.3797 142.007 20.4156 142.038 20.4395 142.069C20.4635 142.099 20.4814 142.149 20.4994 142.192L23.2573 150.501H23.2692L25.9494 142.21C25.9614 142.155 25.9793 142.106 25.9972 142.075C26.0212 142.038 26.0511 142.007 26.105 141.989C26.1528 141.97 26.2186 141.958 26.3083 141.946C26.3981 141.94 26.5177 141.934 26.6673 141.934C26.8229 141.934 26.9425 141.94 27.0322 141.958C27.122 141.97 27.1818 141.989 27.2117 142.026C27.2476 142.063 27.2596 142.118 27.2476 142.185C27.2416 142.253 27.2177 142.345 27.1818 142.456L24.047 151.618V151.618Z" fill="black"/>
<path d="M35.618 151.315C35.618 151.407 35.612 151.487 35.6 151.56C35.5881 151.628 35.5701 151.683 35.5462 151.726C35.5223 151.775 35.4924 151.806 35.4624 151.831C35.4325 151.849 35.3966 151.861 35.3548 151.861H30.7423C30.6286 151.861 30.5209 151.818 30.4192 151.745C30.3175 151.665 30.2637 151.523 30.2637 151.327V142.527C30.2637 142.324 30.3175 142.189 30.4192 142.109C30.5209 142.029 30.6286 141.986 30.7423 141.986H35.3009C35.3428 141.986 35.3787 142.005 35.4086 142.023C35.4445 142.042 35.4684 142.078 35.4864 142.121C35.5103 142.171 35.5283 142.226 35.5402 142.293C35.5522 142.361 35.5581 142.447 35.5581 142.545C35.5581 142.637 35.5522 142.723 35.5402 142.791C35.5283 142.858 35.5103 142.914 35.4864 142.957C35.4684 143 35.4445 143.03 35.4086 143.055C35.3787 143.073 35.3428 143.079 35.3009 143.079H31.5439V146.175H34.7685C34.8104 146.175 34.8403 146.193 34.8762 146.211C34.9061 146.236 34.936 146.267 34.9539 146.31C34.9779 146.346 34.9958 146.402 35.0018 146.475C35.0197 146.549 35.0197 146.629 35.0197 146.727C35.0197 146.819 35.0197 146.899 35.0018 146.967C34.9958 147.028 34.9779 147.083 34.9539 147.12C34.936 147.163 34.9061 147.194 34.8762 147.212C34.8403 147.231 34.8104 147.237 34.7685 147.237H31.5439V150.768H35.3548C35.3966 150.768 35.4325 150.78 35.4624 150.799C35.4924 150.823 35.5223 150.854 35.5462 150.897C35.5701 150.94 35.5881 150.995 35.6 151.063C35.612 151.13 35.618 151.216 35.618 151.315V151.315Z" fill="black"/>
<path d="M44.2276 151.274C44.2276 151.379 44.2217 151.465 44.2097 151.538C44.1977 151.6 44.1858 151.661 44.1678 151.71C44.1379 151.753 44.114 151.79 44.0781 151.815C44.0481 151.839 44.0123 151.852 43.9704 151.852H39.7169C39.6032 151.852 39.4955 151.809 39.3938 151.735C39.2921 151.649 39.2443 151.514 39.2443 151.317V142.179C39.2443 142.136 39.2502 142.106 39.2742 142.069C39.2921 142.044 39.322 142.02 39.3759 142.001C39.4237 141.983 39.4895 141.964 39.5733 141.952C39.663 141.946 39.7588 141.934 39.8784 141.934C40.004 141.934 40.1057 141.946 40.1895 141.952C40.2672 141.964 40.3331 141.983 40.3869 142.001C40.4348 142.02 40.4706 142.044 40.4886 142.069C40.5065 142.106 40.5185 142.136 40.5185 142.179V150.709H43.9704C44.0123 150.709 44.0481 150.722 44.0781 150.746C44.114 150.771 44.1379 150.801 44.1678 150.851C44.1858 150.894 44.1977 150.949 44.2097 151.016C44.2217 151.09 44.2276 151.176 44.2276 151.274V151.274Z" fill="black"/>
<path d="M54.8844 146.805C54.8844 147.603 54.7947 148.328 54.6092 148.966C54.4298 149.611 54.1546 150.152 53.7896 150.6C53.4247 151.054 52.97 151.398 52.4196 151.638C51.8692 151.883 51.2291 152 50.4933 152C49.7694 152 49.1472 151.89 48.6208 151.669C48.0943 151.448 47.6576 151.128 47.3166 150.704C46.9696 150.281 46.7124 149.759 46.5449 149.132C46.3714 148.512 46.2936 147.787 46.2936 146.977C46.2936 146.197 46.3833 145.491 46.5688 144.858C46.7483 144.219 47.0235 143.679 47.3944 143.237C47.7593 142.788 48.214 142.445 48.7643 142.205C49.3147 141.966 49.9549 141.843 50.6847 141.843C51.3966 141.843 52.0128 141.953 52.5393 142.168C53.0657 142.389 53.5025 142.709 53.8494 143.132C54.2024 143.55 54.4597 144.066 54.6272 144.686C54.8007 145.3 54.8844 146.006 54.8844 146.805V146.805ZM53.5383 146.897C53.5383 146.338 53.4845 145.822 53.3888 145.343C53.2931 144.858 53.1315 144.44 52.9102 144.09C52.6829 143.734 52.3837 143.458 52.0068 143.261C51.6299 143.065 51.1633 142.967 50.6129 142.967C50.0566 142.967 49.5899 143.071 49.213 143.286C48.8421 143.501 48.531 143.783 48.2977 144.14C48.0644 144.496 47.8969 144.913 47.7952 145.386C47.6935 145.859 47.6456 146.356 47.6456 146.885C47.6456 147.462 47.6875 148.002 47.7832 148.487C47.8789 148.973 48.0345 149.396 48.2558 149.746C48.4832 150.103 48.7823 150.379 49.1532 150.575C49.5301 150.766 49.9967 150.864 50.5591 150.864C51.1155 150.864 51.5881 150.76 51.965 150.545C52.3479 150.336 52.653 150.041 52.8863 149.679C53.1196 149.317 53.2871 148.893 53.3828 148.42C53.4845 147.941 53.5383 147.437 53.5383 146.897Z" fill="black"/>
<path d="M64.3485 144.878C64.3485 145.375 64.2707 145.818 64.1092 146.211C63.9477 146.61 63.7263 146.954 63.4272 147.23C63.1341 147.506 62.7751 147.728 62.3444 147.881C61.9137 148.028 61.4051 148.108 60.8129 148.108H59.7181V151.658C59.7181 151.701 59.7061 151.738 59.6882 151.762C59.6642 151.799 59.6284 151.824 59.5805 151.842C59.5326 151.86 59.4668 151.873 59.3891 151.885C59.3053 151.897 59.2036 151.904 59.078 151.904C58.9583 151.904 58.8507 151.897 58.7729 151.885C58.6891 151.873 58.6233 151.86 58.5755 151.842C58.5216 151.824 58.4917 151.799 58.4738 151.762C58.4498 151.738 58.4379 151.701 58.4379 151.658V142.557C58.4379 142.354 58.4917 142.207 58.5994 142.121C58.7011 142.035 58.8147 141.992 58.9464 141.992H61.0043C61.2137 141.992 61.4111 141.998 61.6026 142.016C61.794 142.035 62.0154 142.072 62.2786 142.133C62.5358 142.188 62.8051 142.299 63.0683 142.458C63.3435 142.618 63.5708 142.815 63.7622 143.054C63.9477 143.281 64.0913 143.558 64.193 143.865C64.2947 144.172 64.3485 144.51 64.3485 144.878V144.878ZM63.0025 144.989C63.0025 144.583 62.9307 144.252 62.7811 143.981C62.6316 143.711 62.4521 143.515 62.2427 143.38C62.0213 143.244 61.8 143.159 61.5727 143.128C61.3393 143.091 61.118 143.073 60.9026 143.073H59.7181V147.034H60.8667C61.2556 147.034 61.5786 146.978 61.8299 146.88C62.0872 146.776 62.3025 146.641 62.476 146.456C62.6495 146.272 62.7811 146.057 62.8708 145.805C62.9546 145.554 63.0025 145.283 63.0025 144.989Z" fill="black"/>
<path d="M78.2454 151.664C78.2454 151.701 78.2335 151.738 78.2155 151.768C78.1916 151.799 78.1557 151.817 78.1078 151.836C78.054 151.854 77.9882 151.873 77.9104 151.885C77.8326 151.897 77.7309 151.904 77.5993 151.904C77.4857 151.904 77.3839 151.897 77.3002 151.885C77.2164 151.873 77.1507 151.854 77.0968 151.836C77.049 151.817 77.019 151.799 76.9951 151.768C76.9772 151.738 76.9652 151.701 76.9652 151.664V143.066H76.9472L73.5671 151.701C73.5492 151.732 73.5253 151.762 73.5013 151.793C73.4714 151.817 73.4355 151.836 73.3817 151.854C73.3278 151.873 73.268 151.885 73.1962 151.891C73.1244 151.903 73.0407 151.904 72.939 151.904C72.8373 151.904 72.7475 151.897 72.6758 151.891C72.598 151.879 72.5382 151.867 72.4843 151.848C72.4364 151.83 72.4006 151.811 72.3706 151.781C72.3467 151.756 72.3288 151.725 72.3168 151.701L69.0743 143.066H69.0683V151.664C69.0683 151.701 69.0563 151.738 69.0384 151.768C69.0204 151.799 68.9786 151.817 68.9307 151.836C68.8769 151.854 68.8171 151.873 68.7333 151.885C68.6496 151.897 68.5479 151.904 68.4222 151.904C68.2966 151.904 68.1949 151.897 68.1171 151.885C68.0334 151.873 67.9675 151.854 67.9197 151.836C67.8718 151.817 67.8359 151.799 67.818 151.768C67.806 151.738 67.7941 151.701 67.7941 151.664V142.581C67.7941 142.372 67.8479 142.219 67.9556 142.127C68.0692 142.035 68.1889 141.992 68.3265 141.992H69.1102C69.2717 141.992 69.4153 142.01 69.535 142.035C69.6546 142.065 69.7623 142.121 69.852 142.182C69.9418 142.243 70.0136 142.336 70.0794 142.434C70.1392 142.532 70.193 142.655 70.2349 142.79L72.9869 149.938H73.0227L75.8823 142.815C75.9362 142.661 75.996 142.532 76.0619 142.428C76.1277 142.317 76.1994 142.231 76.2772 142.17C76.355 142.108 76.4387 142.059 76.5345 142.029C76.6302 142.004 76.7438 141.992 76.8695 141.992H77.6951C77.7668 141.992 77.8446 142.004 77.9104 142.022C77.9762 142.047 78.0361 142.084 78.0839 142.133C78.1318 142.182 78.1677 142.237 78.1976 142.317C78.2275 142.391 78.2454 142.477 78.2454 142.581V151.664Z" fill="black"/>
<path d="M87.6458 151.315C87.6458 151.407 87.6458 151.487 87.6339 151.56C87.6219 151.628 87.6039 151.683 87.58 151.726C87.5561 151.775 87.5262 151.806 87.4903 151.831C87.4663 151.849 87.4304 151.861 87.3886 151.861H82.7761C82.6624 151.861 82.5547 151.818 82.453 151.745C82.3513 151.665 82.2975 151.523 82.2975 151.327V142.527C82.2975 142.324 82.3513 142.189 82.453 142.109C82.5547 142.029 82.6624 141.986 82.7761 141.986H87.3347C87.3766 141.986 87.4125 142.005 87.4424 142.023C87.4783 142.042 87.5023 142.078 87.5202 142.121C87.5381 142.171 87.5561 142.226 87.568 142.293C87.58 142.361 87.592 142.447 87.592 142.545C87.592 142.637 87.58 142.723 87.568 142.791C87.5561 142.858 87.5381 142.914 87.5202 142.957C87.5023 143 87.4783 143.03 87.4424 143.055C87.4125 143.073 87.3766 143.079 87.3347 143.079H83.5777V146.175H86.8023C86.8382 146.175 86.8741 146.193 86.91 146.211C86.9399 146.236 86.9698 146.267 86.9878 146.31C87.0117 146.346 87.0296 146.402 87.0416 146.475C87.0476 146.549 87.0536 146.629 87.0536 146.727C87.0536 146.819 87.0476 146.899 87.0416 146.967C87.0296 147.028 87.0117 147.083 86.9878 147.12C86.9698 147.163 86.9399 147.194 86.91 147.212C86.8741 147.231 86.8382 147.237 86.8023 147.237H83.5777V150.768H87.3886C87.4304 150.768 87.4663 150.78 87.4903 150.799C87.5262 150.823 87.5561 150.854 87.58 150.897C87.6039 150.94 87.6219 150.995 87.6339 151.063C87.6458 151.13 87.6458 151.216 87.6458 151.315V151.315Z" fill="black"/>
<path d="M98.4976 151.309C98.4976 151.413 98.4797 151.499 98.4438 151.573C98.4139 151.646 98.372 151.702 98.3182 151.745C98.2584 151.794 98.2045 151.825 98.1387 151.843C98.0669 151.868 98.0011 151.874 97.9353 151.874H97.5106C97.3789 151.874 97.2653 151.861 97.1636 151.831C97.0619 151.806 96.9721 151.757 96.8824 151.683C96.7927 151.61 96.7029 151.505 96.6132 151.382C96.5235 151.253 96.4278 151.094 96.326 150.891L93.3946 145.278C93.2391 144.99 93.0835 144.682 92.928 144.369C92.7724 144.05 92.6289 143.743 92.4973 143.442H92.4793C92.4913 143.81 92.4973 144.185 92.5033 144.56C92.5092 144.946 92.5092 145.321 92.5092 145.702V151.659C92.5092 151.689 92.5032 151.726 92.4793 151.757C92.4554 151.788 92.4195 151.812 92.3716 151.831C92.3238 151.855 92.258 151.868 92.1742 151.88C92.0965 151.892 91.9948 151.898 91.8691 151.898C91.7435 151.898 91.6358 151.892 91.558 151.88C91.4743 151.868 91.4144 151.855 91.3666 151.831C91.3187 151.812 91.2828 151.788 91.2649 151.757C91.241 151.726 91.235 151.689 91.235 151.659V142.545C91.235 142.349 91.2888 142.201 91.4025 142.115C91.5102 142.029 91.6358 141.98 91.7674 141.98H92.3956C92.5451 141.98 92.6708 141.999 92.7665 142.023C92.8682 142.048 92.9579 142.091 93.0417 142.152C93.1134 142.208 93.1912 142.287 93.269 142.392C93.3408 142.496 93.4186 142.625 93.5023 142.785L95.7517 147.114C95.8953 147.378 96.0269 147.642 96.1585 147.894C96.2842 148.146 96.4098 148.392 96.5294 148.637C96.6491 148.883 96.7688 149.122 96.8884 149.356C97.0021 149.589 97.1217 149.829 97.2354 150.068H97.2413C97.2294 149.663 97.2234 149.251 97.2234 148.809C97.2174 148.379 97.2174 147.962 97.2174 147.563V142.208C97.2174 142.171 97.2294 142.134 97.2473 142.103C97.2713 142.079 97.3072 142.048 97.355 142.023C97.4089 142.005 97.4687 141.986 97.5524 141.98C97.6302 141.968 97.7379 141.962 97.8695 141.962C97.9832 141.962 98.0849 141.968 98.1686 141.98C98.2524 141.986 98.3182 142.005 98.3601 142.023C98.4079 142.048 98.4438 142.079 98.4677 142.103C98.4857 142.134 98.4976 142.171 98.4976 142.208V151.309V151.309Z" fill="black"/>
<path d="M108.635 142.557C108.635 142.649 108.635 142.735 108.623 142.808C108.611 142.882 108.593 142.931 108.575 142.98C108.552 143.023 108.528 143.054 108.492 143.073C108.462 143.091 108.426 143.103 108.384 143.103H105.68V151.664C105.68 151.701 105.674 151.738 105.65 151.768C105.632 151.799 105.596 151.824 105.548 151.836C105.494 151.854 105.435 151.873 105.351 151.885C105.267 151.897 105.165 151.904 105.046 151.904C104.926 151.904 104.824 151.897 104.741 151.885C104.651 151.873 104.585 151.854 104.537 151.836C104.489 151.824 104.454 151.799 104.436 151.768C104.418 151.738 104.406 151.701 104.406 151.664V143.103H101.702C101.66 143.103 101.624 143.091 101.594 143.073C101.558 143.054 101.534 143.023 101.516 142.98C101.492 142.931 101.48 142.882 101.462 142.808C101.45 142.735 101.444 142.649 101.444 142.557C101.444 142.458 101.45 142.372 101.462 142.299C101.48 142.225 101.492 142.17 101.516 142.121C101.534 142.078 101.558 142.041 101.594 142.022C101.624 142.004 101.66 141.992 101.702 141.992H108.384C108.426 141.992 108.462 142.004 108.492 142.022C108.528 142.041 108.552 142.078 108.575 142.121C108.593 142.17 108.611 142.225 108.623 142.299C108.635 142.372 108.635 142.458 108.635 142.557V142.557Z" fill="black"/>
<path d="M0 78.5991H15.6681L36.1221 109.452V78.5991H51.9457V134.36H36.1221L15.7817 103.741V134.36H0V78.5991Z" fill="black"/>
<path d="M56.9971 78.5991H88.4169C93.6516 78.5991 97.6718 79.9318 100.478 82.597C103.283 85.2561 104.683 88.5539 104.683 92.4842C104.683 95.782 103.684 98.6069 101.686 100.965C100.352 102.537 98.3956 103.784 95.8232 104.693C99.7297 105.657 102.601 107.309 104.444 109.655C106.281 112.007 107.202 114.948 107.202 118.498C107.202 121.39 106.55 123.988 105.24 126.297C103.929 128.606 102.141 130.43 99.8673 131.775C98.4555 132.61 96.3317 133.224 93.496 133.599C89.7151 134.109 87.2025 134.36 85.9701 134.36H56.9971V78.5991V78.5991ZM73.9274 100.468H81.232C83.8463 100.468 85.671 100.007 86.694 99.0797C87.717 98.1586 88.2315 96.8198 88.2315 95.0696C88.2315 93.4484 87.717 92.1771 86.694 91.2621C85.671 90.3532 83.8822 89.8926 81.3397 89.8926H73.9274V100.468ZM73.9274 122.379H82.4883C85.3778 122.379 87.4178 121.851 88.6024 120.801C89.7869 119.751 90.3852 118.332 90.3852 116.557C90.3852 114.912 89.7929 113.585 88.6203 112.584C87.4478 111.583 85.3958 111.086 82.4524 111.086H73.9274V122.379V122.379Z" fill="black"/>
<path d="M142.655 79.1899H114.765V107.82H142.655V79.1899Z" fill="black"/>
<path d="M154.952 98.1637H172.51V80.1333H154.952V98.1637Z" fill="black"/>
<path d="M142.694 20.1589H98.274V65.763H142.694V20.1589Z" fill="black"/>
<path d="M154.952 65.7529H219V0H154.952V65.7529Z" fill="#67A80E"/>
</svg>
