<svg width="100" height="100" viewBox="0 0 100 100" fill="none" xmlns="http://www.w3.org/2000/svg">
<path d="M74.3276 61.0228C83.7612 45.5786 81.846 25.1019 68.5004 11.7359C52.8525 -3.91198 27.3839 -3.91198 11.7359 11.7359C-3.91198 27.3839 -3.91198 52.8525 11.7359 68.48C25.0815 81.8256 45.5583 83.7408 61.0228 74.3073L83.9446 97.229C87.6121 100.896 93.5819 100.896 97.2494 97.229C100.917 93.5615 100.917 87.5917 97.2494 83.9242L74.3276 61.0228ZM60.2078 60.2078C49.1239 71.2918 31.1125 71.2918 20.0489 60.2078C8.96496 49.1239 8.96496 31.1125 20.0489 20.0489C31.1328 8.96495 49.1443 8.96495 60.2078 20.0489C71.2714 31.1125 71.2714 49.1239 60.2078 60.2078ZM44.8248 35.0244H56.9275V44.2543H44.8248V56.357H35.5949V44.2543H23.5126V35.0244H35.6153V22.9218H44.8452V35.0244H44.8248Z" fill="black" fill-opacity="0.62"/>
</svg>
